<svg xmlns="http://www.w3.org/2000/svg" viewBox="0 0 508.84 503.22"><title>zen</title><g id="レイヤー_2" data-name="レイヤー 2"><g id="レイヤー_1-2" data-name="レイヤー 1"><path d="M508.84,334.17c0,5.05-43.25,10.11-56.17,24.71a8,8,0,0,1-6.74,3.37c-5.61,0-93.23-53.35-123.55-196-19.1,106.15-71.89,172.42-187.59,205-6.74,1.68-10.67,2.81-12.35,2.81a2.44,2.44,0,0,1-1.69-.57c0-1.68,5-4.49,10.67-6.73C228,326.87,275.2,262.84,290.92,166.8c-18,.57-38.19,2.25-64,5.06h-.56c-4.5,0-10.67-5.62-15.73-11.8C132.54,356.64,6.18,392.58,1.68,392.58.56,392.58,0,392,0,391.46c0-1.69,4.49-6.18,14.6-12.36C154.45,293.17,193.76,98.85,193.76,98.29c0-2.25-1.68-3.37-4.49-3.37H120.75c-6.18,16.28-12.92,30.89-19.66,44.93,3.37,0,7.3-.57,11.24-.57,11.79,0,48.3,1.69,48.3,29.21,0,10.11-6.18,19.09-15.17,19.09-5.05,0-10.67-2.8-16.85-10.1-7.3-9-18-21.91-31.45-30.33A435.55,435.55,0,0,1,64,201.62a113,113,0,0,1,14-.56c14.6,0,48.3,2.25,48.3,29.21,0,10.11-6.18,19.09-15.17,19.09-5,0-10.67-2.8-16.85-10.11-7.86-9.54-19.65-23.58-34.26-32q-21.9,29.49-43.8,48.86C7.3,264,2.81,267.34.56,267.34c-.56,0-.56-.57-.56-1.13,0-2.24,3.93-9,9.55-15.72C40.44,213.42,79.75,125.81,100,51.67c5-18.53,5.62-28.64,6.74-47.18C106.71.56,107.83,0,109,0c6.74,0,55.6,14,55.6,24.71,0,3.93-3.93,7.3-11.23,9.55-11.24,3.37-11.24-1.12-18.54,21.34l-8.42,24.15h65.71c2.81,0,5.61-2.25,7.86-5C206.68,68,213.42,64,214,64c5.62,0,40.44,25.83,40.44,33.69,0,6.18-9,9-14,10.67-5.62,1.69-12.36,1.69-16.85,14.61-2.25,7.86-5.06,15.16-7.86,22.46,28.08,3.37,55,5.06,77.5,6.18,2.81-20.78,3.93-43.25,3.93-66.83,0-35.95-1.68-60.66-5.61-81.44V1.68c0-.56,0-1.68,4.49-1.68,3.37,0,55.6,5.05,55.6,19.1,0,3.93-3.37,7.86-10.67,11.23-7.86,3.37-10.11,2.81-10.11,25.27,0,35.38-1.68,67.4-6.18,96.6h72.45c3.37,0,5.62-2.24,7.3-5,5.06-7.3,22.47-32,28.65-32,7.3,0,47.73,28.65,47.73,43.81,0,3.93-2.24,7.3-11.23,7.3H331.36c26.4,80.32,86.49,142.66,172.42,165.12C507.15,332.49,508.84,333.05,508.84,334.17ZM105.59,403.25c0,51.11-37.07,100-76.39,100-14,0-23-8.42-23-18.53,0-9.55,7.86-20.78,26.39-27.52,35.95-13.48,53.92-41,66.28-65.15,1.68-2.81,2.81-4.49,3.93-4.49S105.59,389.21,105.59,403.25ZM212.3,463.91c0,24.15-15.73,35.38-26.4,35.38-8.43,0-16.29-6.74-16.29-22.47a34.67,34.67,0,0,1,.56-7.3c1.13-7.86,1.69-23,1.69-37.63,0-12.91-.56-25.83-1.69-33.13a19.42,19.42,0,0,1-.56-5.06c0-1.12,0-1.68.56-1.68,5.62,0,41.56,41,42.13,70.76Zm129.17,4.49c0,15.72-9.55,27-19.66,27-7.86,0-16.28-6.74-20.78-23-6.17-22.46-18.53-55-29.2-74.13-1.69-3.37-2.81-5.62-2.81-6.74,0-.57,0-.57,1.12-.57C281.38,390.89,341.47,428.52,341.47,468.4ZM424.59,95.48c0,10.67-7.3,19.65-16.85,19.65-6.17,0-12.91-3.37-19.09-12.35-10.11-14-27.52-29.21-43.81-38.19-2.81-1.69-4.49-2.81-4.49-3.37,0-1.69,11.79-2.25,19.09-2.25C392,59,424.59,70.2,424.59,95.48ZM483,468.4c0,13.48-7.3,22.47-16.85,22.47-7.86,0-16.28-5.62-24.15-19.1-16.85-29.21-46.61-61.22-61.78-76.38-3.37-3.37-5.05-5.06-5.05-6.18s.56-1.12,2.25-1.12C396.51,388.09,483,422.91,483,468.4Z"/></g></g></svg>