<svg xmlns="http://www.w3.org/2000/svg" viewBox="0 0 972.29 434.31"><title>about</title><g id="レイヤー_2" data-name="レイヤー 2"><g id="レイヤー_1-2" data-name="レイヤー 1"><path d="M576.68,412.25l3.73,8.15,4-9.45,4.06,9.45,3.69-8.15h3.69l-7.47,15.34-4-9.19-4,9.19L573,412.25Z"/><path d="M597.61,406.32a2,2,0,0,1,.63-1.49,2.05,2.05,0,0,1,1.51-.63,2.08,2.08,0,0,1,1.52.63,2,2,0,0,1,.63,1.5,2.08,2.08,0,0,1-.63,1.53,2,2,0,0,1-1.51.63,2.15,2.15,0,0,1-2.15-2.17Zm3.79,5.93v14.27h-3.29V412.25Z"/><path d="M609,415.33v11.19h-3.3V415.33h-1.41v-3.08h1.41V407H609v5.23h2.56v3.08Z"/><path d="M613.78,401.78h3.3v11.66a5.63,5.63,0,0,1,3.88-1.58,5,5,0,0,1,3.87,1.56,6.39,6.39,0,0,1,1.23,4.35v8.75h-3.3v-8.44a4,4,0,0,0-.61-2.48,2.33,2.33,0,0,0-1.95-.77,2.67,2.67,0,0,0-2.43,1.07,7.3,7.3,0,0,0-.69,3.72v6.9h-3.3Z"/><path d="M650,401.78h3.31v24.74H650V425a6.15,6.15,0,0,1-4.41,1.9,6.27,6.27,0,0,1-4.87-2.14,7.94,7.94,0,0,1-1.92-5.45,7.69,7.69,0,0,1,1.92-5.33,6.18,6.18,0,0,1,9.28-.1Zm-7.83,17.56a5,5,0,0,0,1.1,3.34,3.6,3.6,0,0,0,2.84,1.31,3.77,3.77,0,0,0,3-1.26,5.43,5.43,0,0,0,0-6.63,3.76,3.76,0,0,0-2.93-1.27,3.64,3.64,0,0,0-2.84,1.29A4.76,4.76,0,0,0,642.18,419.34Z"/><path d="M670.47,420.16H660.25a4.26,4.26,0,0,0,1.14,2.8,3.5,3.5,0,0,0,2.59,1,3.4,3.4,0,0,0,2-.59,8.32,8.32,0,0,0,1.8-2.17l2.78,1.55a10.7,10.7,0,0,1-1.36,1.89A7.38,7.38,0,0,1,667.7,426a6.57,6.57,0,0,1-1.77.74,9,9,0,0,1-2.07.23,6.69,6.69,0,0,1-5.12-2.05,7.69,7.69,0,0,1-1.94-5.48,7.93,7.93,0,0,1,1.88-5.48,7.16,7.16,0,0,1,10-.06,7.91,7.91,0,0,1,1.81,5.53Zm-3.38-2.69a3.16,3.16,0,0,0-3.33-2.64,3.25,3.25,0,0,0-2.09.71,3.7,3.7,0,0,0-.74.83,3.75,3.75,0,0,0-.46,1.1Z"/><path d="M682.36,414.68l-2.72,1.45c-.43-.87-1-1.31-1.6-1.31a1.08,1.08,0,0,0-.77.3,1,1,0,0,0-.33.77c0,.54.64,1.08,1.91,1.62a11.44,11.44,0,0,1,3.53,2.08,3.59,3.59,0,0,1,.91,2.56,4.49,4.49,0,0,1-1.53,3.46,5.45,5.45,0,0,1-8.65-2.18l2.81-1.3a6.51,6.51,0,0,0,.89,1.3,2.05,2.05,0,0,0,1.44.56c1.11,0,1.67-.51,1.67-1.53,0-.58-.43-1.13-1.29-1.64-.33-.16-.66-.33-1-.48l-1-.49a6.1,6.1,0,0,1-2-1.4,3.46,3.46,0,0,1-.75-2.3,4.08,4.08,0,0,1,1.28-3.08,4.46,4.46,0,0,1,3.16-1.21A4.3,4.3,0,0,1,682.36,414.68Z"/><path d="M685.75,406.32a2,2,0,0,1,.63-1.49,2.05,2.05,0,0,1,1.51-.63,2.08,2.08,0,0,1,1.52.63,2,2,0,0,1,.63,1.5,2.08,2.08,0,0,1-.63,1.53,2,2,0,0,1-1.51.63,2.15,2.15,0,0,1-2.15-2.17Zm3.79,5.93v14.27h-3.29V412.25Z"/><path d="M707.52,426.18c0,.68,0,1.27-.07,1.78a11,11,0,0,1-.18,1.36,6.2,6.2,0,0,1-1.38,2.77,6.68,6.68,0,0,1-5.32,2.22,7.07,7.07,0,0,1-4.7-1.54,6.28,6.28,0,0,1-2.2-4.37H697a3.81,3.81,0,0,0,.63,1.62,3.54,3.54,0,0,0,3,1.33q3.61,0,3.62-4.43v-2a6.16,6.16,0,0,1-4.53,2,6.06,6.06,0,0,1-4.77-2.11,7.82,7.82,0,0,1-1.88-5.35,8.19,8.19,0,0,1,1.75-5.3,6.06,6.06,0,0,1,5-2.31,5.77,5.77,0,0,1,4.48,2v-1.61h3.3Zm-3.17-6.76a4.82,4.82,0,0,0-1.11-3.33,3.68,3.68,0,0,0-2.89-1.27,3.55,3.55,0,0,0-3,1.39,5.73,5.73,0,0,0,0,6.41,3.56,3.56,0,0,0,3,1.37,3.62,3.62,0,0,0,3-1.38A4.88,4.88,0,0,0,704.35,419.42Z"/><path d="M711.68,412.25H715v1.32a5.4,5.4,0,0,1,3.89-1.71,5,5,0,0,1,3.89,1.56,6.43,6.43,0,0,1,1.2,4.35v8.75h-3.31v-8a5.2,5.2,0,0,0-.59-2.91,2.35,2.35,0,0,0-2.08-.82,2.55,2.55,0,0,0-2.33,1.08,7.46,7.46,0,0,0-.67,3.74v6.88h-3.31Z"/><path d="M730.16,422.29l2.93,1.14-4.17,8.36-2.23-.92Z"/><path d="M748.43,412.25l3.73,8.15,4-9.45,4.06,9.45,3.69-8.15h3.69l-7.47,15.34-4-9.19-4,9.19-7.46-15.34Z"/><path d="M782.85,420.16H772.63a4.36,4.36,0,0,0,1.14,2.8,3.5,3.5,0,0,0,2.59,1,3.4,3.4,0,0,0,2-.59,8.13,8.13,0,0,0,1.8-2.17l2.78,1.55a10.21,10.21,0,0,1-1.36,1.89,7.38,7.38,0,0,1-1.54,1.29,6.31,6.31,0,0,1-1.77.74,8.9,8.9,0,0,1-2.06.23,6.71,6.71,0,0,1-5.13-2.05,7.69,7.69,0,0,1-1.93-5.48,7.92,7.92,0,0,1,1.87-5.48,7.16,7.16,0,0,1,10-.06,7.91,7.91,0,0,1,1.82,5.53Zm-3.38-2.69a3.16,3.16,0,0,0-3.33-2.64A3.42,3.42,0,0,0,775,415a3.2,3.2,0,0,0-1,.53,3.27,3.27,0,0,0-.74.83,3.77,3.77,0,0,0-.47,1.1Z"/><path d="M789.75,401.78v12.13a6.07,6.07,0,0,1,4.48-2.05A6.15,6.15,0,0,1,799,414a7.69,7.69,0,0,1,1.92,5.33,7.84,7.84,0,0,1-1.94,5.45,6.33,6.33,0,0,1-9.27.24v1.49h-3.29V401.78Zm7.84,17.71a4.93,4.93,0,0,0-1.11-3.34,3.59,3.59,0,0,0-2.83-1.32,3.82,3.82,0,0,0-3,1.27,5.42,5.42,0,0,0,0,6.61,3.89,3.89,0,0,0,5.77,0A4.68,4.68,0,0,0,797.59,419.49Z"/><path d="M824.22,412.25h3.31v14.27h-3.31V425a6.33,6.33,0,0,1-9.27-.24,7.94,7.94,0,0,1-1.92-5.45A7.68,7.68,0,0,1,815,414a6.17,6.17,0,0,1,4.8-2.14,6.06,6.06,0,0,1,4.47,2.05Zm-7.82,7.09a4.93,4.93,0,0,0,1.1,3.34,3.6,3.6,0,0,0,2.84,1.31,3.78,3.78,0,0,0,3-1.26,5.43,5.43,0,0,0,0-6.63,3.76,3.76,0,0,0-2.93-1.27,3.63,3.63,0,0,0-2.84,1.29A4.71,4.71,0,0,0,816.4,419.34Z"/><path d="M831.69,412.25H835v1.32a5.4,5.4,0,0,1,3.9-1.71,4.93,4.93,0,0,1,3.88,1.56,6.43,6.43,0,0,1,1.2,4.35v8.75h-3.31v-8a5.12,5.12,0,0,0-.59-2.91,2.35,2.35,0,0,0-2.08-.82,2.53,2.53,0,0,0-2.32,1.08,7.44,7.44,0,0,0-.68,3.74v6.88h-3.31Z"/><path d="M858.66,401.78H862v24.74h-3.31V425a6.15,6.15,0,0,1-4.41,1.9,6.26,6.26,0,0,1-4.86-2.14,7.94,7.94,0,0,1-1.92-5.45,7.69,7.69,0,0,1,1.92-5.33,6.16,6.16,0,0,1,9.27-.1Zm-7.82,17.56a4.93,4.93,0,0,0,1.1,3.34,3.58,3.58,0,0,0,2.84,1.31,3.8,3.8,0,0,0,3-1.26,5.47,5.47,0,0,0,0-6.63,3.77,3.77,0,0,0-2.93-1.27,3.66,3.66,0,0,0-2.85,1.29A4.75,4.75,0,0,0,850.84,419.34Z"/><path d="M875.39,412.25h3.29v1.32a7.26,7.26,0,0,1,1.63-1.35,4,4,0,0,1,1.8-.36,4.35,4.35,0,0,1,3.82,2.11,5,5,0,0,1,4.21-2.11q4.82,0,4.82,5.84v8.82h-3.31V418.6a6.18,6.18,0,0,0-.5-2.91,1.81,1.81,0,0,0-1.69-.86,2.14,2.14,0,0,0-2,1,6.53,6.53,0,0,0-.62,3.29v7.37h-3.31v-7.88c0-2.54-.74-3.81-2.2-3.81a2.21,2.21,0,0,0-2,1,6.53,6.53,0,0,0-.64,3.28v7.37h-3.29Z"/><path d="M898.44,419.28a7.09,7.09,0,0,1,2.22-5.26,7.82,7.82,0,0,1,10.81,0,7.65,7.65,0,0,1,0,10.74,7.56,7.56,0,0,1-5.46,2.15,7.25,7.25,0,0,1-5.38-2.2A7.4,7.4,0,0,1,898.44,419.28Zm3.37.06a4.79,4.79,0,0,0,1.15,3.39,4.43,4.43,0,0,0,6.18,0,5.38,5.38,0,0,0,0-6.65,4.39,4.39,0,0,0-6.16,0A4.58,4.58,0,0,0,901.81,419.34Z"/><path d="M920.55,415.33v11.19h-3.3V415.33h-1.4v-3.08h1.4V407h3.3v5.23h2.56v3.08Z"/><path d="M924.85,406.32a2,2,0,0,1,.63-1.49,2.15,2.15,0,0,1,3,0,2,2,0,0,1,.63,1.5,2.08,2.08,0,0,1-.63,1.53,2,2,0,0,1-1.51.63,2.15,2.15,0,0,1-2.16-2.17Zm3.8,5.93v14.27h-3.3V412.25Z"/><path d="M932.15,419.28a7.12,7.12,0,0,1,2.21-5.26,7.82,7.82,0,0,1,10.81,0,7.64,7.64,0,0,1,0,10.74,7.6,7.6,0,0,1-5.47,2.15,7.22,7.22,0,0,1-5.37-2.2A7.36,7.36,0,0,1,932.15,419.28Zm3.37.06a4.83,4.83,0,0,0,1.14,3.39,4.43,4.43,0,0,0,6.18,0,5.35,5.35,0,0,0,0-6.65,4.38,4.38,0,0,0-6.15,0A4.58,4.58,0,0,0,935.52,419.34Z"/><path d="M950.86,412.25h3.31v1.32a5.4,5.4,0,0,1,3.89-1.71,4.92,4.92,0,0,1,3.88,1.56,6.37,6.37,0,0,1,1.21,4.35v8.75h-3.31v-8a5.2,5.2,0,0,0-.59-2.91,2.35,2.35,0,0,0-2.08-.82,2.55,2.55,0,0,0-2.33,1.08,7.46,7.46,0,0,0-.67,3.74v6.88h-3.31Z"/><path d="M331,289c-9.07-8.17-16.87-8.71-20.32-8.71-3.81,0-8.52.54-11.79,4.17a10.84,10.84,0,0,0-3.08,7.62,8.46,8.46,0,0,0,2.72,6.71c2.9,2.72,7.07,3.81,15.24,6.9l9.07,3.44c5.26,2,11.79,4.72,16.51,9.26,7.07,6.71,8.89,15.42,8.89,22.49,0,12.52-4.36,23.41-10.71,29.94-10.7,11.25-26.3,12.34-34.29,12.34-8.7,0-16.32-1.27-23.94-5.08a76.88,76.88,0,0,1-17.78-13.25l14.51-19.95a74.17,74.17,0,0,0,11.25,9.25,28.13,28.13,0,0,0,15.24,4.35c3.63,0,8.71-.72,12.7-4.17a12.52,12.52,0,0,0,4.35-9.8,10.68,10.68,0,0,0-4.17-8.71c-3.27-2.72-10.7-5.44-14.15-6.71l-10-3.45c-5.62-2-12.16-4.53-16.87-9.61-6.35-6.71-7.26-15.24-7.26-21.05,0-10.7,3.27-19.77,10.52-27.21,8.53-8.71,18.69-11.07,29.94-11.07a58.46,58.46,0,0,1,35.92,12Z"/><path d="M475.63,274.34c11.43,11.07,18.87,27,18.87,45.72a62.58,62.58,0,0,1-18.87,45.36c-11.25,10.88-26.49,17.78-46.81,17.78-22.68,0-38.1-9.07-47.17-17.78-11.61-10.89-18.87-27.22-18.87-45,0-17.41,7.8-35,18.69-45.9,8.16-8.16,23.22-17.78,47.35-17.78C447.69,256.74,463.47,262.55,475.63,274.34Zm-73.48,18.51c-5.26,5.08-10.7,14-10.7,27.39,0,11.07,3.63,20,11.06,27.22,7.81,7.43,16.51,10,25.95,10,12.34,0,21-4.53,26.85-10.34,4.72-4.53,10.52-13.06,10.52-27,0-12.52-5.08-21.77-10.52-27.21a38.8,38.8,0,0,0-26.67-10.35C418.12,282.5,408.68,286.31,402.15,292.85Z"/><path d="M617.69,331.13c0,11.61-1.45,25.94-13.43,38.28-11.61,12-25,13.79-37.73,13.79s-26.13-1.82-37.74-13.79c-12-12.34-13.43-26.67-13.43-38.28V259.46H543.3V330.4c0,5.26.37,14.15,6.35,20.32,4.9,5.26,11.62,6.35,16.88,6.35s12-1.09,16.87-6.35c6-6.17,6.35-15.06,6.35-20.32V259.46h27.94Z"/><path d="M680.83,356.89h51.88v23.59H634.93L693,283.05H644.36V259.46H738.7Z"/><path d="M824.34,283.05H783.88v23.4h38.46V330H783.88v26.85h40.46v23.59h-68.4v-121h68.4Z"/><path d="M847,380.48v-121h24.31l65.68,78v-78h27.93v121H940.63L875,302.1v78.38Z"/><path d="M138.9,166.8H63.3L48,204.6H0L80.7,4.5H123l78.9,200.1h-48Zm-12.6-35.4L101.7,64.2,76.8,131.4Z"/><path d="M285.6,4.5c10.8,0,35.4.6,51,15.3C349.5,32.1,351,48.9,351,57.6c0,7.8-1.2,16.8-6.6,25.5a36.66,36.66,0,0,1-16.8,14.7c9.6,1.5,20.4,6.3,27.6,13.5,6.6,6.6,12.9,18,12.9,35.7,0,20.1-7.8,32.7-15.6,40.5-16.5,15.9-40.5,17.1-52.8,17.1H224.4V4.5ZM270,85.8h7.5c6.3,0,16.8-.9,23.4-5.7,4.2-3,8.1-9,8.1-17.7s-4.2-14.1-7.8-16.8c-6.6-5.1-15.6-5.1-24-5.1H270Zm0,82.8h11.1c11.7,0,25.8-.3,34.2-8.1,4.2-3.9,6.6-9.6,6.6-16.8,0-8.1-3.3-13.5-6.3-16.2-8.1-7.5-23.7-7.5-33-7.5H270Z"/><path d="M579.9,29.1c18.9,18.3,31.2,44.7,31.2,75.6,0,26.7-9.6,54-31.2,75-18.6,18-43.8,29.4-77.4,29.4-37.5,0-63-15-78-29.4-19.2-18-31.2-45-31.2-74.4,0-28.8,12.9-57.9,30.9-75.9C437.69,15.9,462.6,0,502.5,0,533.7,0,559.8,9.6,579.9,29.1ZM458.4,59.7c-8.71,8.4-17.71,23.1-17.71,45.3,0,18.3,6,33,18.31,45,12.9,12.3,27.3,16.5,42.9,16.5,20.4,0,34.8-7.5,44.4-17.1,7.8-7.5,17.4-21.6,17.4-44.7,0-20.7-8.4-36-17.4-45-9.9-9.6-25.8-17.1-44.1-17.1C484.8,42.6,469.2,48.9,458.4,59.7Z"/><path d="M814.8,123c0,19.2-2.4,42.9-22.2,63.3-19.2,19.8-41.41,22.8-62.41,22.8s-43.2-3-62.4-22.8c-19.8-20.4-22.2-44.1-22.2-63.3V4.5h46.2V121.8c0,8.7.61,23.4,10.5,33.6,8.11,8.7,19.2,10.5,27.9,10.5s19.81-1.8,27.91-10.5c9.9-10.2,10.5-24.9,10.5-33.6V4.5h46.2Z"/><path d="M928.79,43.5V204.6h-46.2V43.5h-43.5V4.5h133.2v39Z"/></g></g></svg>