<svg xmlns="http://www.w3.org/2000/svg" viewBox="0 0 44.87 195.3"><title>side</title><g id="レイヤー_2" data-name="レイヤー 2"><g id="レイヤー_1-2" data-name="レイヤー 1"><path d="M25.45,6.4,20.13,3.65V0L44.36,12.51,20.13,20.32v-3.5l5.32-1.64Zm2.9,1.45v6.39l8-2.43Z"/><path d="M44.87,28.81,32.65,27.3a8.55,8.55,0,0,1,1.28,2.22,6.59,6.59,0,0,1,.33,2.12,6.1,6.1,0,0,1-1.93,4.64,6.81,6.81,0,0,1-4.89,1.84A7.58,7.58,0,0,1,22,36a6.83,6.83,0,0,1-2.19-5.12A6.68,6.68,0,0,1,22,26l-1.84-.23V22.53l24.74,3ZM27.36,34.86a4.19,4.19,0,0,0,3-1.1,3.72,3.72,0,0,0,1.17-2.85,4,4,0,0,0-1.4-3.15,5.12,5.12,0,0,0-3.56-1.25,4.11,4.11,0,0,0-2.95,1.07,3.66,3.66,0,0,0-1.14,2.79,4.11,4.11,0,0,0,1.42,3.17A4.89,4.89,0,0,0,27.36,34.86Z"/><path d="M27.16,56.16A7.15,7.15,0,0,1,21.84,54a7.38,7.38,0,0,1-2.15-5.39,7.56,7.56,0,0,1,2-5.47A6.84,6.84,0,0,1,26.91,41a7,7,0,0,1,5.33,2.21,7.7,7.7,0,0,1,2.14,5.57,7.29,7.29,0,0,1-2,5.34A6.86,6.86,0,0,1,27.16,56.16Zm.16-3.26a4.26,4.26,0,0,0,3.15-1.16,4,4,0,0,0,1.2-3,4.28,4.28,0,0,0-1.33-3.23A4.74,4.74,0,0,0,27,44.21a4.55,4.55,0,0,0-3.29,1.2,4.09,4.09,0,0,0-1.28,3.11,4,4,0,0,0,1.4,3.13A5.07,5.07,0,0,0,27.32,52.9Z"/><path d="M33.93,72.55l-8-1a16.38,16.38,0,0,1-1.79-.29,9,9,0,0,1-1.27-.38,4.29,4.29,0,0,1-1.74-1.38,6.78,6.78,0,0,1-1.29-4.32,6,6,0,0,1,1.3-4.07,4.43,4.43,0,0,1,3.53-1.53c.22,0,.49,0,.79,0l1,.11,7.46.91V63.9l-7.75-1-.87-.08-.63,0c-1.45,0-2.18.85-2.18,2.56a2.65,2.65,0,0,0,.72,2,4.62,4.62,0,0,0,2.52.88l8.19,1Z"/><path d="M30.92,80.19,20.13,78.85V75.62L30.92,77V75.12l3,.36v1.83l6.4.8v3.23l-6.4-.79v3l-3-.37Z"/><path d="M39.86,108.56l-2.14-2.24c1.56-1.07,2.35-2.29,2.35-3.66a3.45,3.45,0,0,0-.93-2.48,3,3,0,0,0-2.31-1,2.9,2.9,0,0,0-1.92.67,7.21,7.21,0,0,0-.87,1c-.32.44-.67,1-1.06,1.64a12.79,12.79,0,0,1-3.08,3.89,6.09,6.09,0,0,1-3.65,1,6.2,6.2,0,0,1-4.74-1.94,6.93,6.93,0,0,1-1.82-5,7.93,7.93,0,0,1,1.08-4.26,7,7,0,0,1,1.42-1.64,12.54,12.54,0,0,1,2.11-1.47L26,95.61a7.52,7.52,0,0,0-2.52,2,4.43,4.43,0,0,0-.69,2.59,4,4,0,0,0,.94,2.78,3.51,3.51,0,0,0,2.67,1,2.91,2.91,0,0,0,2-.73,6.69,6.69,0,0,0,1-1.1c.35-.48.74-1.09,1.18-1.83a12.28,12.28,0,0,1,2.87-3.56,5.73,5.73,0,0,1,3.42-1,6,6,0,0,1,4.54,1.9,6.7,6.7,0,0,1,1.81,4.81,6.37,6.37,0,0,1-.76,3.22A9.94,9.94,0,0,1,39.86,108.56Z"/><path d="M27.16,125.46a7.17,7.17,0,0,1-5.32-2.19,7.41,7.41,0,0,1-2.15-5.39,7.57,7.57,0,0,1,2-5.48,6.84,6.84,0,0,1,5.18-2.14,7.08,7.08,0,0,1,5.33,2.21A7.71,7.71,0,0,1,34.38,118a7.29,7.29,0,0,1-2,5.34A6.86,6.86,0,0,1,27.16,125.46Zm.16-3.26A4.26,4.26,0,0,0,30.47,121a4,4,0,0,0,1.2-3,4.24,4.24,0,0,0-1.33-3.22A4.75,4.75,0,0,0,27,113.51a4.55,4.55,0,0,0-3.29,1.2,4.09,4.09,0,0,0-1.28,3.11,4,4,0,0,0,1.4,3.13A5.07,5.07,0,0,0,27.32,122.2Z"/><path d="M33.93,141.86l-8-1a14.27,14.27,0,0,1-1.79-.29,9,9,0,0,1-1.27-.38,4.21,4.21,0,0,1-1.74-1.38,6.78,6.78,0,0,1-1.29-4.32,6,6,0,0,1,1.3-4.07,4.42,4.42,0,0,1,3.53-1.52l.79,0,1,.11,7.46.91v3.24l-7.75-.95-.87-.09-.63,0c-1.45,0-2.18.85-2.18,2.56a2.65,2.65,0,0,0,.72,2.05,4.54,4.54,0,0,0,2.52.88l8.19,1Z"/><path d="M23.13,157.66l-3-.37V143.12l10.79,9.24v-6.93l3,.37v13l-10.8-9.3Z"/><path d="M25.87,163.56a3.28,3.28,0,0,0-2.5,1.06,3.84,3.84,0,0,0-1,2.72,4,4,0,0,0,1.7,3.49l-1.33,2.42a7.73,7.73,0,0,1-2.37-2.6,7.31,7.31,0,0,1-.69-3.36,7,7,0,0,1,1.89-5.12,6.79,6.79,0,0,1,5.05-1.9,7.79,7.79,0,0,1,5.54,2.09,6.93,6.93,0,0,1,2.21,5.26,6.15,6.15,0,0,1-2,4.85,7.76,7.76,0,0,1-5.38,1.8c-.23,0-.61,0-1.14,0ZM28.48,171q3.19-.51,3.19-3.53,0-2.85-3.19-3.72Z"/><path d="M33.93,182l-1.28-.15a6,6,0,0,1,1.61,3.88A4.58,4.58,0,0,1,33.14,189a4.07,4.07,0,0,1-3.08,1.19,21.19,21.19,0,0,1-2.52-.18l-7.41-.92v-3.23l8.11,1c.31,0,.58.07.81.08s.44,0,.63,0c1.25,0,1.87-.67,1.87-2a3.19,3.19,0,0,0-.76-2.14,3.6,3.6,0,0,0-1.46-1.08,5,5,0,0,0-1.08-.32q-.63-.13-1.47-.24l-6.65-.82v-3.24l13.8,1.7Z"/><rect y="0.03" width="3.65" height="195.27"/></g></g></svg>