<svg id="レイヤー_1" xmlns="http://www.w3.org/2000/svg" viewBox="0 0 156 18.8"><style>.st0{stroke-width:2}.st0,.st1,.st2,.st3{fill:none;stroke:#000}.st2,.st3{stroke-width:4}.st3{stroke-width:3}</style><title>barcode</title><g id="レイヤー_1-2"><path class="st0" d="M155 18.8V0"/><path class="st1" d="M152.5 18.8V0M149.5 18.8V0"/><path class="st2" d="M143 18.8V0"/><path class="st1" d="M139.5 18.8V0"/><path class="st3" d="M136.5 18.8V0"/><path class="st2" d="M132 18.8V0"/><path class="st3" d="M127.5 18.8V0"/><path class="st1" d="M124.5 18.8V0M122.5 18.8V0M119.5 18.8V0"/><path class="st0" d="M117 18.8V0"/><path class="st1" d="M111.5 18.8V0"/><path class="st2" d="M107 18.8V0"/><path class="st1" d="M103.5 18.8V0M100.5 18.8V0"/><path class="st2" d="M97 18.8V0"/><path class="st1" d="M92.5 18.8V0M89.5 18.8V0"/><path class="st2" d="M85 18.8V0"/><path class="st1" d="M80.5 18.8V0M78.5 18.8V0M75.5 18.8V0"/><path class="st2" d="M71 18.8V0"/><path class="st1" d="M67.5 18.8V0M64.5 18.8V0"/><path class="st0" d="M62 18.8V0"/><path class="st1" d="M56.5 18.8V0"/><path class="st0" d="M51 18.8V0"/><path class="st1" d="M48.5 18.8V0"/><path class="st0" d="M45 18.8V0"/><path class="st3" d="M40.5 18.8V0"/><path class="st1" d="M36.5 18.8V0"/><path class="st0" d="M34 18.8V0"/><path class="st3" d="M30.5 18.8V0"/><path class="st1" d="M26.5 18.8V0M23.5 18.8V0M21.5 18.8V0"/><path class="st0" d="M16 18.8V0M12 18.8V0"/><path class="st3" d="M6.5 18.8V0"/><path class="st1" d="M3.5 18.8V0"/><path class="st0" d="M1 18.8V0"/></g></svg>