<svg xmlns="http://www.w3.org/2000/svg" viewBox="0 0 170.13 19.81"><defs><style>.cls-1{fill:#fff;}</style></defs><title>name</title><g id="レイヤー_2" data-name="レイヤー 2"><g id="レイヤー_1-2" data-name="レイヤー 1"><path class="cls-1" d="M10.19,16.14A13.44,13.44,0,0,0,6.9,14.36c-.08,1.84-.51,2.55-2.81,2.55-2.49,0-4-.88-4-2.34,0-.52.18-2.61,4.24-2.46h.5l0-1.72c-.32,0-1.31,0-1.83,0-1.66,0-2.49-.59-2.49-1.3,0-.88,1.23-1.72,1.93-2.23l1,.88c-.32.24-.59.44-.59.67s.38.25.68.25c.6,0,.83,0,1.25,0l0-2.25c-2.07.09-3.1.16-4.64.34L0,4.83c2.05,0,3,0,4.63-.07L4.57,2.37l2.2.21c.34,0,.45.09.45.22s0,.09-.23.25a.58.58,0,0,0-.24.33s0,.35,0,1.29c2.3-.11,2.91-.14,4.61-.27l-.08,1.91c-2,0-3.67,0-4.57.05V8.49c1.57-.2,2.23-.31,3.89-.61v2c-.78.12-1.73.29-3.85.45,0,.9,0,1.08.09,2.14a15.1,15.1,0,0,1,4.55,2ZM4,13.78c-1.17,0-1.75.31-1.75.78s1.16.61,1.37.61c1.17,0,1.25-.33,1.23-1.33A4.22,4.22,0,0,0,4,13.78Z"/><path class="cls-1" d="M27.47,14.16a14.48,14.48,0,0,1-6.12,1.37l-.92-2.36a14.77,14.77,0,0,0,1.77.09c3.07,0,6.4-1.26,6.4-4.12,0-2.27-1.94-3-3.31-3a18.19,18.19,0,0,0-4,.81c-.66.18-3.61,1-4.23,1.21l-1-2.27a36.21,36.21,0,0,0,4.63-.86,18.63,18.63,0,0,1,4.5-.81c2.41,0,5.53,1.22,5.53,5.09A5.26,5.26,0,0,1,27.47,14.16Z"/><path class="cls-1" d="M39,17.26l-1-2.22a16.62,16.62,0,0,0,2.25.2c3.35,0,4.88-1.75,4.88-3.4,0-1.15-.92-1.89-2.27-1.89s-3.06.72-4.91,2.88L36.43,12a35.28,35.28,0,0,1,1.41-6.88l2.07.81a22.51,22.51,0,0,0-1.08,4,7,7,0,0,1,4.43-1.82,3.89,3.89,0,0,1,4,3.95C47.25,17.1,41.24,17.2,39,17.26ZM43,5.88a17.11,17.11,0,0,0-4.16-2l.78-1.78A21.67,21.67,0,0,1,43.94,4Z"/><path class="cls-1" d="M55.91,15.74a1.93,1.93,0,0,1-1.33-.59c-1.26-1.22-1.84-3.33-1.84-6.75a17.38,17.38,0,0,1,.54-4.68l2,.54c.13,0,.41.12.41.34s-.21.27-.52.38a18.51,18.51,0,0,0-.34,4c0,3.51.86,4.16,1.22,4.16.65,0,1.39-1.91,1.73-2.77l1.5,1.33C58.27,13.84,57.37,15.74,55.91,15.74ZM65,12.54a16.76,16.76,0,0,0-2.65-7.31l1.86-.9a15.36,15.36,0,0,1,3,7.65Z"/><path class="cls-1" d="M84,.09l2.26.42L75.73,19.81l-2.26-.41Z"/><path class="cls-1" d="M92.29,5.48h2.88v1a2.81,2.81,0,0,1,2.5-1.26,3.32,3.32,0,0,1,1.68.4,2.64,2.64,0,0,1,1.08,1.24,3.43,3.43,0,0,1,3-1.64,3.58,3.58,0,0,1,2.5.84,3.6,3.6,0,0,1,.92,2.66V14.4H104V9.88a3,3,0,0,0-.38-1.74,1.32,1.32,0,0,0-1-.48,1.38,1.38,0,0,0-1.12.54A2.87,2.87,0,0,0,101,10V14.4H98.15V9.76A2.4,2.4,0,0,0,97.69,8a1.29,1.29,0,0,0-1-.36,1.4,1.4,0,0,0-1,.36,2.71,2.71,0,0,0-.56,1.82V14.4H92.29Z"/><path class="cls-1" d="M116,5.48h2.88V14.4H116V13.32a3,3,0,0,1-2.64,1.38A4.23,4.23,0,0,1,110,13.34a4.72,4.72,0,0,1-1.3-3.34,5.08,5.08,0,0,1,1.38-3.6,4.3,4.3,0,0,1,3.1-1.22,3.35,3.35,0,0,1,2.8,1.3ZM112.33,8.3a2.23,2.23,0,0,0-.66,1.62,2.3,2.3,0,0,0,.6,1.6,2.37,2.37,0,0,0,1.7.7,2.13,2.13,0,0,0,1.5-.62,2.37,2.37,0,0,0,0-3.32,2.41,2.41,0,0,0-1.6-.62A2.27,2.27,0,0,0,112.33,8.3Z"/><path class="cls-1" d="M124.07,7.8v6.6h-2.88V7.8h-1V5.48h1V2.6h2.88V5.48h1.78V7.8Z"/><path class="cls-1" d="M132.55,7.76a3.27,3.27,0,0,0-1.58-.5,1.22,1.22,0,0,0-.82.26.62.62,0,0,0-.18.4.47.47,0,0,0,.28.4,5.18,5.18,0,0,0,.86.3l.76.24a3.79,3.79,0,0,1,1.48.78,2.13,2.13,0,0,1,.7,1.7,3.24,3.24,0,0,1-.92,2.34,3.85,3.85,0,0,1-2.9,1,5.3,5.3,0,0,1-3.66-1.28l1.22-1.94a5,5,0,0,0,1,.66,2.69,2.69,0,0,0,1.2.28,1.61,1.61,0,0,0,.9-.2.76.76,0,0,0,.3-.58.59.59,0,0,0-.32-.52,3.8,3.8,0,0,0-.88-.32l-.72-.22a3.56,3.56,0,0,1-1.44-.82,2.2,2.2,0,0,1-.64-1.62A2.76,2.76,0,0,1,128,6.08a3.93,3.93,0,0,1,2.7-.9,5.63,5.63,0,0,1,3,.76Z"/><path class="cls-1" d="M138.65,5.48V10.4a1.88,1.88,0,0,0,.5,1.44,1.7,1.7,0,0,0,1.2.42,1.79,1.79,0,0,0,1.22-.42,1.94,1.94,0,0,0,.48-1.44V5.48h2.88v5.2a3.58,3.58,0,0,1-1,2.86,6.14,6.14,0,0,1-7.18,0,3.42,3.42,0,0,1-1-2.68V5.48Z"/><path class="cls-1" d="M147.17,5.48h2.88v1.4a3.2,3.2,0,0,1,1.12-1.24,2.76,2.76,0,0,1,1.54-.38,2.89,2.89,0,0,1,.94.14l-.16,2.7a2.72,2.72,0,0,0-1.3-.32,1.88,1.88,0,0,0-1.44.6,3.39,3.39,0,0,0-.7,2.4V14.4h-2.88Z"/><path class="cls-1" d="M161.69,5.48h2.88V14.4h-2.88V13.32a3,3,0,0,1-2.64,1.38,4.23,4.23,0,0,1-3.34-1.36,4.72,4.72,0,0,1-1.3-3.34,5.08,5.08,0,0,1,1.38-3.6,4.3,4.3,0,0,1,3.1-1.22,3.35,3.35,0,0,1,2.8,1.3ZM158,8.3a2.23,2.23,0,0,0-.66,1.62,2.3,2.3,0,0,0,.6,1.6,2.37,2.37,0,0,0,1.7.7,2.13,2.13,0,0,0,1.5-.62,2.37,2.37,0,0,0,0-3.32,2.41,2.41,0,0,0-1.6-.62A2.27,2.27,0,0,0,158,8.3Z"/><path class="cls-1" d="M168.45,0a1.66,1.66,0,0,1,1.68,1.68,1.68,1.68,0,0,1-3.36,0A1.66,1.66,0,0,1,168.45,0Zm1.44,5.48V14.4H167V5.48Z"/></g></g></svg>