<svg xmlns="http://www.w3.org/2000/svg" viewBox="0 0 410.76 65.62"><title>title</title><g id="レイヤー_2" data-name="レイヤー 2"><g id="レイヤー_1-2" data-name="レイヤー 1"><path d="M48.3,62.23a29.14,29.14,0,0,1-13.84,3.39c-11.58,0-19.4-4-24.67-9.13A32.88,32.88,0,0,1,0,32.67,32.74,32.74,0,0,1,9.79,9,33.32,33.32,0,0,1,33.23,0,37.48,37.48,0,0,1,48.3,3.48V20.24a19.91,19.91,0,0,0-14.69-6.68,17.6,17.6,0,0,0-12.8,4.89A20.1,20.1,0,0,0,14.88,33a18.86,18.86,0,0,0,5.46,13.84,19,19,0,0,0,13.55,5.27c3.77,0,8.85-1,14.41-6.49Z"/><path d="M115.52,9.13a32.69,32.69,0,0,1,9.79,23.73,32.44,32.44,0,0,1-9.79,23.53c-5.84,5.65-13.75,9.23-24.29,9.23-11.77,0-19.77-4.71-24.48-9.23A32,32,0,0,1,57,33.05a35.06,35.06,0,0,1,9.7-23.82C70.89,5,78.71,0,91.23,0,101,0,109.21,3,115.52,9.13ZM77.39,18.74C74.66,21.37,71.83,26,71.83,33a18.73,18.73,0,0,0,5.75,14.12A18.45,18.45,0,0,0,91,52.25c6.4,0,10.92-2.35,13.93-5.37,2.45-2.35,5.46-6.77,5.46-14A19.75,19.75,0,0,0,105,18.74a20.08,20.08,0,0,0-13.84-5.37A19.26,19.26,0,0,0,77.39,18.74Z"/><path d="M136.14,64.21V1.41h12.61L182.83,41.9V1.41h14.5v62.8H184.72L150.63,23.54V64.21Z"/><path d="M233.11,13.65V64.21h-14.5V13.65H205V1.41h41.8V13.65Z"/><path d="M291.29,52.35H267.56l-4.8,11.86H247.7L273,1.41H286.3l24.76,62.8H296Zm-4-11.11-7.71-21.09L271.8,41.24Z"/><path d="M363.5,62.23a29.14,29.14,0,0,1-13.84,3.39c-11.58,0-19.4-4-24.67-9.13a32.88,32.88,0,0,1-9.79-23.82A32.74,32.74,0,0,1,325,9a33.32,33.32,0,0,1,23.44-9A37.48,37.48,0,0,1,363.5,3.48V20.24a19.89,19.89,0,0,0-14.69-6.68A17.6,17.6,0,0,0,336,18.45,20.1,20.1,0,0,0,330.08,33a18.86,18.86,0,0,0,5.46,13.84,19,19,0,0,0,13.55,5.27c3.77,0,8.85-1,14.41-6.49Z"/><path d="M397.11,13.65V64.21h-14.5V13.65H369V1.41h41.8V13.65Z"/></g></g></svg>