<svg xmlns="http://www.w3.org/2000/svg" viewBox="0 0 166.75 845.01"><title>souzen_type</title><g id="レイヤー_2" data-name="レイヤー 2"><g id="レイヤー_1-2" data-name="レイヤー 1"><path d="M36.8,757.61a26.29,26.29,0,0,0-12,8.51c-4.37,5.75-4.83,12-4.83,17.25,0,5.75.92,13.11,6.44,19.32a25.3,25.3,0,0,0,18.17,8,18.55,18.55,0,0,0,14-6.44c2.76-3,6.44-9.66,8.05-12.88l6.44-13.8c3.22-7.13,7.36-14,13.11-19.55,9-8.74,17-10.35,26.91-10.35,9,0,23,1.61,34.73,12.88,13.34,12.88,14.72,29,14.72,39.79,0,12.42-2.3,22.54-11.5,31.74A48.33,48.33,0,0,1,123.05,845l-4.6-17a31.62,31.62,0,0,0,20-8.28c6.9-6.67,8-14.26,8-21.85,0-7.36-1.15-16.79-8.51-23.92-6-5.75-15-8.28-22.31-8.28a26,26,0,0,0-19.55,8.28c-2.76,3-6.9,10.12-9.2,14.95l-5.75,12.19c-1.84,4.14-6.44,13.11-11.73,18.17C65.09,823.39,57.73,828,45.77,828c-10.81,0-20.47-3.22-29-12C7.36,806.37,3.91,795.1,3.91,782.22c0-6.67.92-17,6.44-25.3a37.39,37.39,0,0,1,17.48-13.8Z"/><path d="M142.6,701.26C132.94,710.69,116.38,721,91.77,721c-31.51,0-52-13.8-63.71-26.22C12,678,3.91,657.33,3.91,631.8c0-16.79,3.68-35.65,19.32-51.52C32.89,570.39,49,560,73.37,560c23.69,0,48.3,8.51,65.09,25.76,12.88,13.34,24.15,35.19,24.15,64.4C162.61,667,158.24,686.08,142.6,701.26ZM38.18,682.17C48.3,693,65.09,703.33,88.55,703.33c18.86,0,33.12-6.9,42.32-15.87,8.28-8.05,15.64-20.47,15.64-39.1,0-20.7-7.36-38.41-18.4-49.68C115,585.11,94.76,577.75,76.59,577.75c-17.25,0-31.51,6.67-40.94,16.1C28.06,601.44,20,614.09,20,633.64S27.14,670.21,38.18,682.17Z"/><path d="M96.6,513.35A136,136,0,0,0,115,515c8.51,0,16.79-2.77,23.23-9.9,7.36-8.05,8.28-16.78,8.28-25.75,0-7.59-.46-19.78-10.81-29-9.89-8.74-25.76-10.35-35.19-11.5L6.44,427.34v-17l98.67,12.19c16.79,2.07,31.28,4.83,43.7,17.94s13.8,28.52,13.8,40.71c0,14.26-2.76,26.9-12.88,37.49A42.63,42.63,0,0,1,118,532c-4.83,0-19.09-1.15-23.23-1.61l-88.32-11v-17Z"/><path d="M143.75,373.29V291.87l16.1,2.07V403.88L22.54,303.37v72.91l-16.1-2.07V272.78Z"/><path d="M22.54,170v62.56l45.54,5.52V177.33l16.1,2.07v60.72l59.57,7.13V184.69l16.1,2.07v79.58L6.44,247.48V167.9Z"/><path d="M159.85,155.48,0,135.93,125.81,31.74,6.44,17V0L166.75,19.78,40.94,124l118.91,14.49Z"/></g></g></svg>