<svg xmlns="http://www.w3.org/2000/svg" viewBox="0 0 227.44 52.94"><title>role</title><g id="レイヤー_2" data-name="レイヤー 2"><g id="レイヤー_1-2" data-name="レイヤー 1"><path d="M0,4.4H2l2.08,7.1L6.3,4.4H7.84l2.24,7.16,2-7.16H14L10.9,13.7H9.12L7,7.2,4.82,13.7H3.14Z"/><path d="M23.94,12.34c-.11.12-.27.27-.48.46a3.72,3.72,0,0,1-.83.54,6.87,6.87,0,0,1-1.2.45,5.77,5.77,0,0,1-1.57.19,5.29,5.29,0,0,1-2-.36,4.41,4.41,0,0,1-1.54-1,4.51,4.51,0,0,1-1-1.58A5.74,5.74,0,0,1,15,9a5.22,5.22,0,0,1,.34-1.91,4.67,4.67,0,0,1,1-1.54,4.53,4.53,0,0,1,1.47-1,4.6,4.6,0,0,1,1.87-.38,4.26,4.26,0,0,1,2.06.46A4.16,4.16,0,0,1,23.11,5.8a5.15,5.15,0,0,1,.81,1.74,8,8,0,0,1,.26,2H16.84a2.73,2.73,0,0,0,.27,1.14,2.86,2.86,0,0,0,.67.9,3.38,3.38,0,0,0,1,.6,2.93,2.93,0,0,0,1.14.22,4.06,4.06,0,0,0,3-1.18Zm-1.62-4.1a3,3,0,0,0-.76-1.84,2.42,2.42,0,0,0-1.92-.76,2.8,2.8,0,0,0-2,.8,2.59,2.59,0,0,0-.56.83,2.74,2.74,0,0,0-.22,1Z"/><path d="M26.18.36H28V5.42a2.84,2.84,0,0,1,.39-.4A3.24,3.24,0,0,1,29,4.61a3.68,3.68,0,0,1,.83-.31,4.69,4.69,0,0,1,2.88.25,3.85,3.85,0,0,1,1.33,1,4.31,4.31,0,0,1,.81,1.53A6.38,6.38,0,0,1,35.1,9a5.3,5.3,0,0,1-.38,2,4.56,4.56,0,0,1-1.07,1.58,5,5,0,0,1-1.65,1,5.79,5.79,0,0,1-2.12.37,11.72,11.72,0,0,1-2.12-.18,8.58,8.58,0,0,1-1.58-.42ZM28,12.16l.69.17a6.06,6.06,0,0,0,1.21.09,3.64,3.64,0,0,0,1.4-.25,3.26,3.26,0,0,0,1.07-.7A3,3,0,0,0,33,10.39,3.83,3.83,0,0,0,33.26,9a4.93,4.93,0,0,0-.15-1.23,3,3,0,0,0-.48-1A2.5,2.5,0,0,0,31.8,6a2.53,2.53,0,0,0-1.22-.27A2.74,2.74,0,0,0,29.43,6a2.39,2.39,0,0,0-.82.6,2.44,2.44,0,0,0-.49.86,3.14,3.14,0,0,0-.16,1Z"/><path d="M43.84,12.52l-.33.37a2.9,2.9,0,0,1-.61.49,4.33,4.33,0,0,1-.89.42,3.59,3.59,0,0,1-1.19.18,3.93,3.93,0,0,1-3-1.3A4.47,4.47,0,0,1,37,11.17a5.94,5.94,0,0,1-.31-2,5.11,5.11,0,0,1,.46-2.27,4.92,4.92,0,0,1,1.17-1.56,4.62,4.62,0,0,1,1.54-.89,4.83,4.83,0,0,1,1.57-.28,4.6,4.6,0,0,1,1.31.16,6.4,6.4,0,0,1,1.11.44V.36h1.8V13.13c0,.19,0,.38,0,.57H43.9Zm0-6.06a3,3,0,0,0-.92-.5,4.15,4.15,0,0,0-1.36-.2A3,3,0,0,0,40.35,6a2.85,2.85,0,0,0-1,.68,3,3,0,0,0-.64,1.08,4.35,4.35,0,0,0-.23,1.44,4.6,4.6,0,0,0,.16,1.25,3.07,3.07,0,0,0,.49,1,2.36,2.36,0,0,0,.84.69,2.67,2.67,0,0,0,1.21.25,2.59,2.59,0,0,0,1.2-.26,2.5,2.5,0,0,0,.81-.65,2.65,2.65,0,0,0,.46-.86,2.84,2.84,0,0,0,.15-.87Z"/><path d="M56.62,12.34c-.11.12-.27.27-.48.46a3.72,3.72,0,0,1-.83.54,6.87,6.87,0,0,1-1.2.45,5.77,5.77,0,0,1-1.57.19,5.29,5.29,0,0,1-2-.36,4.41,4.41,0,0,1-1.54-1A4.51,4.51,0,0,1,48,11a5.74,5.74,0,0,1-.35-2A5.22,5.22,0,0,1,48,7.07a4.67,4.67,0,0,1,1-1.54,4.53,4.53,0,0,1,1.47-1,4.6,4.6,0,0,1,1.87-.38,4.26,4.26,0,0,1,2.06.46A4.16,4.16,0,0,1,55.79,5.8a5.15,5.15,0,0,1,.81,1.74,8,8,0,0,1,.26,2H49.52a2.73,2.73,0,0,0,.27,1.14,2.86,2.86,0,0,0,.67.9,3.38,3.38,0,0,0,1,.6,2.93,2.93,0,0,0,1.14.22,4.06,4.06,0,0,0,3-1.18ZM55,8.24a3,3,0,0,0-.76-1.84,2.42,2.42,0,0,0-1.92-.76,2.8,2.8,0,0,0-2,.8,2.59,2.59,0,0,0-.56.83,2.74,2.74,0,0,0-.22,1Z"/><path d="M59.46,11.36a3.76,3.76,0,0,0,1.2.8,4.11,4.11,0,0,0,1.62.3,3.49,3.49,0,0,0,1.5-.29,1,1,0,0,0,.6-.91,1.07,1.07,0,0,0-.13-.55,1.17,1.17,0,0,0-.44-.41A3.86,3.86,0,0,0,63,10c-.34-.1-.76-.21-1.27-.33a8.2,8.2,0,0,1-1.07-.32,3.52,3.52,0,0,1-.95-.53A2.61,2.61,0,0,1,59,8a2.33,2.33,0,0,1-.26-1.13,2.22,2.22,0,0,1,.31-1.19,2.72,2.72,0,0,1,.83-.86,4.15,4.15,0,0,1,1.17-.53,5,5,0,0,1,1.35-.18,5.86,5.86,0,0,1,2,.31,4.79,4.79,0,0,1,1.49.87L65,6.52a3.59,3.59,0,0,0-1-.64,3.9,3.9,0,0,0-1.47-.26,2.89,2.89,0,0,0-1.38.28,1,1,0,0,0-.52.92,1,1,0,0,0,.69.89A11.42,11.42,0,0,0,63,8.26a12,12,0,0,1,1.23.37,3.82,3.82,0,0,1,1,.54A2.42,2.42,0,0,1,66,10a2.45,2.45,0,0,1,.25,1.16,2.35,2.35,0,0,1-.32,1.23,2.8,2.8,0,0,1-.86.89,4,4,0,0,1-1.24.54,5.84,5.84,0,0,1-1.46.18,5.14,5.14,0,0,1-4-1.42Z"/><path d="M68.26.72h2v2h-2Zm.12,3.68h1.8v9.3h-1.8Z"/><path d="M74,15.6a4.41,4.41,0,0,0,1.13.55,5.12,5.12,0,0,0,1.63.23,2.56,2.56,0,0,0,2-.74,2.8,2.8,0,0,0,.66-1.94V12.56l-.37.33a3.45,3.45,0,0,1-.58.4,4.61,4.61,0,0,1-.83.34,3.7,3.7,0,0,1-1.1.15,4.46,4.46,0,0,1-1.81-.35,3.7,3.7,0,0,1-1.33-1A4,4,0,0,1,72.56,11a5.79,5.79,0,0,1-.28-1.85,5,5,0,0,1,.38-2,4.65,4.65,0,0,1,1.07-1.58,4.83,4.83,0,0,1,1.65-1,5.83,5.83,0,0,1,2.14-.37,10.9,10.9,0,0,1,2.12.2,9.26,9.26,0,0,1,1.58.44V13.7a4.1,4.1,0,0,1-1.17,3.13,4.6,4.6,0,0,1-3.29,1.11,6.6,6.6,0,0,1-2.26-.31,5.06,5.06,0,0,1-1.36-.71ZM79.42,6l-.61-.17a5.84,5.84,0,0,0-1.29-.11A3.57,3.57,0,0,0,76.14,6a3.16,3.16,0,0,0-1.07.7,3.11,3.11,0,0,0-.7,1.07,3.54,3.54,0,0,0-.25,1.36,4.59,4.59,0,0,0,.15,1.2,2.72,2.72,0,0,0,.48,1,2.25,2.25,0,0,0,.83.66,2.79,2.79,0,0,0,1.22.24A3.2,3.2,0,0,0,78,12a2.22,2.22,0,0,0,1.3-1.27,2.46,2.46,0,0,0,.16-.85Z"/><path d="M83.68,13.7V5c0-.13,0-.32,0-.59h1.72l.06,1.4a5.84,5.84,0,0,1,.44-.53,2.87,2.87,0,0,1,.64-.53,3.85,3.85,0,0,1,.89-.4,3.72,3.72,0,0,1,1.15-.16,3.31,3.31,0,0,1,2.7,1.06,4.42,4.42,0,0,1,.88,2.88V13.7h-1.8V8.26a2.78,2.78,0,0,0-.56-1.91,2,2,0,0,0-1.58-.61,2.45,2.45,0,0,0-1.3.32,2.36,2.36,0,0,0-.83.83,3.6,3.6,0,0,0-.45,1.16,5.89,5.89,0,0,0-.14,1.33V13.7Z"/><path d="M102.76,0h1.78L99.26,14H97.44Z"/><path d="M108.9,4.4h2L113,11.5l2.24-7.1h1.54L119,11.56l2-7.16h1.86l-3.08,9.3H118l-2.16-6.5-2.14,6.5H112Z"/><path d="M132.84,12.34c-.11.12-.27.27-.48.46a4,4,0,0,1-.83.54,6.87,6.87,0,0,1-1.2.45,5.82,5.82,0,0,1-1.57.19,5.29,5.29,0,0,1-2-.36,4.32,4.32,0,0,1-1.54-1,4.51,4.51,0,0,1-1-1.58,5.53,5.53,0,0,1-.35-2,5.22,5.22,0,0,1,.34-1.91,4.36,4.36,0,0,1,1-1.54,4.54,4.54,0,0,1,3.34-1.41,4.29,4.29,0,0,1,2.06.46A4.16,4.16,0,0,1,132,5.8a5.56,5.56,0,0,1,.81,1.74,8,8,0,0,1,.26,2h-7.34a2.83,2.83,0,0,0,.94,2,3.38,3.38,0,0,0,1,.6,2.93,2.93,0,0,0,1.14.22,4.14,4.14,0,0,0,1.94-.4,4.29,4.29,0,0,0,1.1-.78Zm-1.62-4.1a3.08,3.08,0,0,0-.76-1.84,2.45,2.45,0,0,0-1.92-.76,2.8,2.8,0,0,0-2,.8,2.59,2.59,0,0,0-.56.83,2.54,2.54,0,0,0-.22,1Z"/><path d="M135.08.36h1.8V5.42a2.84,2.84,0,0,1,.39-.4,2.94,2.94,0,0,1,.61-.41,3.5,3.5,0,0,1,.83-.31,4.69,4.69,0,0,1,2.88.25,3.94,3.94,0,0,1,1.33,1,4.31,4.31,0,0,1,.81,1.53A6.38,6.38,0,0,1,144,9a5.3,5.3,0,0,1-.38,2,4.7,4.7,0,0,1-1.07,1.58,5,5,0,0,1-1.65,1,5.79,5.79,0,0,1-2.12.37,11.72,11.72,0,0,1-2.12-.18,8.37,8.37,0,0,1-1.58-.42Zm1.78,11.8.69.17a6,6,0,0,0,1.21.09,3.68,3.68,0,0,0,1.4-.25,3.26,3.26,0,0,0,1.07-.7,3,3,0,0,0,.69-1.08A3.83,3.83,0,0,0,142.16,9,4.93,4.93,0,0,0,142,7.79a3,3,0,0,0-.48-1A2.5,2.5,0,0,0,140.7,6a2.56,2.56,0,0,0-1.22-.27,2.71,2.71,0,0,0-1.15.23,2.39,2.39,0,0,0-.82.6,2.3,2.3,0,0,0-.49.86,3.14,3.14,0,0,0-.16,1Z"/><path d="M154.52,12.34c-.11.12-.27.27-.48.46a4,4,0,0,1-.83.54,6.87,6.87,0,0,1-1.2.45,5.82,5.82,0,0,1-1.57.19,5.29,5.29,0,0,1-2-.36,4.32,4.32,0,0,1-1.54-1,4.51,4.51,0,0,1-1-1.58,5.53,5.53,0,0,1-.35-2,5.22,5.22,0,0,1,.34-1.91,4.36,4.36,0,0,1,1-1.54,4.54,4.54,0,0,1,3.34-1.41,4.29,4.29,0,0,1,2.06.46,4.16,4.16,0,0,1,1.41,1.22,5.56,5.56,0,0,1,.81,1.74,8,8,0,0,1,.26,2h-7.34a2.83,2.83,0,0,0,.94,2,3.38,3.38,0,0,0,1,.6,2.93,2.93,0,0,0,1.14.22,4.14,4.14,0,0,0,1.94-.4,4.29,4.29,0,0,0,1.1-.78Zm-1.62-4.1a3.08,3.08,0,0,0-.76-1.84,2.45,2.45,0,0,0-1.92-.76,2.8,2.8,0,0,0-2,.8,2.59,2.59,0,0,0-.56.83,2.54,2.54,0,0,0-.22,1Z"/><path d="M156.76,13.7V5c0-.13,0-.32,0-.59h1.72l.06,1.4a5.84,5.84,0,0,1,.44-.53,2.87,2.87,0,0,1,.64-.53,3.85,3.85,0,0,1,.89-.4,3.72,3.72,0,0,1,1.15-.16,3.31,3.31,0,0,1,2.7,1.06,4.42,4.42,0,0,1,.88,2.88V13.7h-1.8V8.26a2.78,2.78,0,0,0-.56-1.91,2,2,0,0,0-1.58-.61,2.45,2.45,0,0,0-1.3.32,2.36,2.36,0,0,0-.83.83,3.6,3.6,0,0,0-.45,1.16,5.89,5.89,0,0,0-.14,1.33V13.7Z"/><path d="M168.88,15.6a4.41,4.41,0,0,0,1.13.55,5.12,5.12,0,0,0,1.63.23,2.56,2.56,0,0,0,2-.74,2.8,2.8,0,0,0,.66-1.94V12.56l-.37.33a3.45,3.45,0,0,1-.58.4,4.61,4.61,0,0,1-.83.34,3.7,3.7,0,0,1-1.1.15,4.46,4.46,0,0,1-1.81-.35,3.7,3.7,0,0,1-1.33-1,4,4,0,0,1-.82-1.46,5.79,5.79,0,0,1-.28-1.85,5,5,0,0,1,.38-2,4.65,4.65,0,0,1,1.07-1.58,4.83,4.83,0,0,1,1.65-1,5.83,5.83,0,0,1,2.14-.37,10.9,10.9,0,0,1,2.12.2,9.26,9.26,0,0,1,1.58.44V13.7A4.1,4.1,0,0,1,175,16.83a4.6,4.6,0,0,1-3.29,1.11,6.6,6.6,0,0,1-2.26-.31,5.06,5.06,0,0,1-1.36-.71ZM174.32,6l-.61-.17a5.84,5.84,0,0,0-1.29-.11A3.57,3.57,0,0,0,171,6a3.16,3.16,0,0,0-1.07.7,3.11,3.11,0,0,0-.7,1.07A3.54,3.54,0,0,0,169,9.14a4.59,4.59,0,0,0,.15,1.2,2.72,2.72,0,0,0,.48,1,2.25,2.25,0,0,0,.83.66,2.79,2.79,0,0,0,1.22.24,3.2,3.2,0,0,0,1.16-.2,2.22,2.22,0,0,0,1.3-1.27,2.46,2.46,0,0,0,.16-.85Z"/><path d="M187.06,12.34c-.11.12-.27.27-.48.46a4,4,0,0,1-.83.54,6.87,6.87,0,0,1-1.2.45A5.82,5.82,0,0,1,183,14a5.29,5.29,0,0,1-2-.36,4.32,4.32,0,0,1-1.54-1,4.51,4.51,0,0,1-1-1.58,5.53,5.53,0,0,1-.35-2,5.22,5.22,0,0,1,.34-1.91,4.36,4.36,0,0,1,1-1.54,4.54,4.54,0,0,1,3.34-1.41,4.29,4.29,0,0,1,2.06.46,4.16,4.16,0,0,1,1.41,1.22A5.56,5.56,0,0,1,187,7.54a8,8,0,0,1,.26,2H180a2.83,2.83,0,0,0,.94,2,3.38,3.38,0,0,0,1,.6,2.93,2.93,0,0,0,1.14.22,4.14,4.14,0,0,0,1.94-.4,4.29,4.29,0,0,0,1.1-.78Zm-1.62-4.1a3.08,3.08,0,0,0-.76-1.84,2.45,2.45,0,0,0-1.92-.76,2.8,2.8,0,0,0-2,.8,2.59,2.59,0,0,0-.56.83,2.54,2.54,0,0,0-.22,1Z"/><path d="M197.78,12.34c-.11.12-.27.27-.48.46a4,4,0,0,1-.83.54,6.87,6.87,0,0,1-1.2.45,5.82,5.82,0,0,1-1.57.19,5.29,5.29,0,0,1-2-.36,4.32,4.32,0,0,1-1.54-1,4.51,4.51,0,0,1-1-1.58,5.53,5.53,0,0,1-.35-2,5.22,5.22,0,0,1,.34-1.91,4.36,4.36,0,0,1,1-1.54,4.54,4.54,0,0,1,3.34-1.41,4.29,4.29,0,0,1,2.06.46A4.16,4.16,0,0,1,197,5.8a5.56,5.56,0,0,1,.81,1.74,8,8,0,0,1,.26,2h-7.34a2.83,2.83,0,0,0,.94,2,3.38,3.38,0,0,0,1,.6,2.93,2.93,0,0,0,1.14.22,4.14,4.14,0,0,0,1.94-.4,4.29,4.29,0,0,0,1.1-.78Zm-1.62-4.1a3.08,3.08,0,0,0-.76-1.84,2.45,2.45,0,0,0-1.92-.76,2.8,2.8,0,0,0-2,.8,2.59,2.59,0,0,0-.56.83,2.54,2.54,0,0,0-.22,1Z"/><path d="M200,13.7V5c0-.13,0-.32,0-.59h1.72l.06,1.4a5.84,5.84,0,0,1,.44-.53,2.87,2.87,0,0,1,.64-.53,3.85,3.85,0,0,1,.89-.4,3.72,3.72,0,0,1,1.15-.16,3.31,3.31,0,0,1,2.7,1.06,4.42,4.42,0,0,1,.88,2.88V13.7h-1.8V8.26a2.78,2.78,0,0,0-.56-1.91,2,2,0,0,0-1.58-.61,2.45,2.45,0,0,0-1.3.32,2.36,2.36,0,0,0-.83.83A3.6,3.6,0,0,0,202,8.05a5.89,5.89,0,0,0-.14,1.33V13.7Z"/><path d="M219.38,12.34c-.11.12-.27.27-.48.46a4,4,0,0,1-.83.54,6.87,6.87,0,0,1-1.2.45,5.82,5.82,0,0,1-1.57.19,5.29,5.29,0,0,1-2-.36,4.32,4.32,0,0,1-1.54-1,4.51,4.51,0,0,1-1-1.58,5.53,5.53,0,0,1-.35-2,5.22,5.22,0,0,1,.34-1.91,4.36,4.36,0,0,1,1-1.54,4.54,4.54,0,0,1,3.34-1.41,4.29,4.29,0,0,1,2.06.46,4.16,4.16,0,0,1,1.41,1.22,5.56,5.56,0,0,1,.81,1.74,8,8,0,0,1,.26,2h-7.34a2.83,2.83,0,0,0,.94,2,3.38,3.38,0,0,0,1,.6,2.93,2.93,0,0,0,1.14.22,4.14,4.14,0,0,0,1.94-.4,4.29,4.29,0,0,0,1.1-.78Zm-1.62-4.1A3.08,3.08,0,0,0,217,6.4a2.45,2.45,0,0,0-1.92-.76,2.8,2.8,0,0,0-2,.8,2.59,2.59,0,0,0-.56.83,2.54,2.54,0,0,0-.22,1Z"/><path d="M221.62,13.7V5c0-.12,0-.31,0-.58h1.72l.06,1.5a3.44,3.44,0,0,1,.42-.53,3,3,0,0,1,.63-.53,3.62,3.62,0,0,1,.86-.41,3.49,3.49,0,0,1,1.13-.17,3.16,3.16,0,0,1,.55,0,3.59,3.59,0,0,1,.47.12L227,6.1a2.66,2.66,0,0,0-.92-.14,2.5,2.5,0,0,0-1.07.22,2.75,2.75,0,0,0-.86.61,3.1,3.1,0,0,0-.56.91,2.91,2.91,0,0,0-.21,1.1v4.9Z"/><path d="M44,48.7V40c0-.13,0-.32,0-.59H45.7l.06,1.4a5.35,5.35,0,0,1,.42-.53,3.26,3.26,0,0,1,.62-.53,3.49,3.49,0,0,1,2-.56,3.37,3.37,0,0,1,1.79.43,3,3,0,0,1,1.11,1.25,5.83,5.83,0,0,1,1.37-1.17,3.7,3.7,0,0,1,2-.51,3.21,3.21,0,0,1,2.66,1.07,4.46,4.46,0,0,1,.86,2.87V48.7h-1.8V43.26a3,3,0,0,0-.51-1.91,1.83,1.83,0,0,0-1.49-.61,2.36,2.36,0,0,0-1,.23,2.69,2.69,0,0,0-1.36,1.5,3,3,0,0,0-.19,1.07V48.7H50.4V43.26a3,3,0,0,0-.51-1.91,1.8,1.8,0,0,0-1.47-.61,2.28,2.28,0,0,0-1.24.32,2.57,2.57,0,0,0-.81.83,3.55,3.55,0,0,0-.44,1.17,6.56,6.56,0,0,0-.13,1.32V48.7Z"/><path d="M65.48,49a4.93,4.93,0,0,1-2-.39A4.72,4.72,0,0,1,62,47.52a5.18,5.18,0,0,1-1-1.57,5.11,5.11,0,0,1,0-3.82,5.18,5.18,0,0,1,1-1.57,4.72,4.72,0,0,1,1.55-1.07,4.93,4.93,0,0,1,2-.39A4.84,4.84,0,0,1,69,40.56a5,5,0,0,1,1,1.57A5.11,5.11,0,0,1,70,46a5,5,0,0,1-1,1.57A4.84,4.84,0,0,1,65.48,49Zm0-1.56a2.92,2.92,0,0,0,1.3-.29,3.08,3.08,0,0,0,1-.76,3.19,3.19,0,0,0,.61-1.08,3.77,3.77,0,0,0,0-2.48,3.36,3.36,0,0,0-.62-1.09,3.07,3.07,0,0,0-1-.77,2.85,2.85,0,0,0-1.29-.29,2.92,2.92,0,0,0-1.3.29,3.08,3.08,0,0,0-1,.76,3.19,3.19,0,0,0-.61,1.08A3.81,3.81,0,0,0,62.38,44a3.71,3.71,0,0,0,.21,1.24,3.42,3.42,0,0,0,.62,1.08,3.07,3.07,0,0,0,1,.77A2.85,2.85,0,0,0,65.48,47.42Z"/><path d="M73.24,40.9H71.56V39.4h1.68v-3H75v3h2.72v1.5H75v4.58A2.5,2.5,0,0,0,75.39,47a1.21,1.21,0,0,0,1,.42,2,2,0,0,0,.86-.16,2.83,2.83,0,0,0,.68-.48l.82,1.1a3.94,3.94,0,0,1-1.19.81A3.76,3.76,0,0,1,76.1,49a2.72,2.72,0,0,1-2.17-.8,3.77,3.77,0,0,1-.69-2.5Z"/><path d="M80.08,35.72h2v2h-2Zm.12,3.68H82v9.3H80.2Z"/><path d="M89,49a4.93,4.93,0,0,1-2-.39,4.72,4.72,0,0,1-1.55-1.07,5.18,5.18,0,0,1-1-1.57,5.11,5.11,0,0,1,0-3.82,5.18,5.18,0,0,1,1-1.57,4.72,4.72,0,0,1,1.55-1.07,4.93,4.93,0,0,1,2-.39,4.84,4.84,0,0,1,3.52,1.46,5,5,0,0,1,1,1.57,5.11,5.11,0,0,1,0,3.82,5,5,0,0,1-1,1.57A4.84,4.84,0,0,1,89,49Zm0-1.56a2.92,2.92,0,0,0,1.3-.29,3.08,3.08,0,0,0,1-.76,3.19,3.19,0,0,0,.61-1.08,3.77,3.77,0,0,0,0-2.48,3.36,3.36,0,0,0-.62-1.09,3.07,3.07,0,0,0-1-.77A2.85,2.85,0,0,0,89,40.66a2.92,2.92,0,0,0-1.3.29,3.08,3.08,0,0,0-1,.76,3.19,3.19,0,0,0-.61,1.08A3.81,3.81,0,0,0,85.94,44a3.71,3.71,0,0,0,.21,1.24,3.42,3.42,0,0,0,.62,1.08,3.07,3.07,0,0,0,1,.77A2.85,2.85,0,0,0,89,47.42Z"/><path d="M96,48.7V40c0-.13,0-.32,0-.59H97.7l.06,1.4c.12-.16.27-.34.44-.53a3.11,3.11,0,0,1,.64-.53,3.85,3.85,0,0,1,.89-.4,3.72,3.72,0,0,1,1.15-.16,3.31,3.31,0,0,1,2.7,1.06,4.37,4.37,0,0,1,.88,2.88V48.7h-1.8V43.26a2.78,2.78,0,0,0-.56-1.91,2,2,0,0,0-1.58-.61,2.48,2.48,0,0,0-1.3.32,2.44,2.44,0,0,0-.83.83,3.6,3.6,0,0,0-.45,1.16,6.53,6.53,0,0,0-.14,1.33V48.7Z"/><path d="M117.2,47.52l-.33.37a2.9,2.9,0,0,1-.61.49,4.33,4.33,0,0,1-.89.42,3.59,3.59,0,0,1-1.19.18,3.93,3.93,0,0,1-3-1.3,4.47,4.47,0,0,1-.87-1.51,5.94,5.94,0,0,1-.31-2,5.11,5.11,0,0,1,.46-2.27,4.92,4.92,0,0,1,1.17-1.56,4.62,4.62,0,0,1,1.54-.89,4.83,4.83,0,0,1,1.57-.28,4.6,4.6,0,0,1,1.31.16,6.4,6.4,0,0,1,1.11.44V35.36H119V48.13c0,.19,0,.38,0,.57h-1.76Zm0-6.06a3,3,0,0,0-.92-.5,4.15,4.15,0,0,0-1.36-.2,3,3,0,0,0-1.21.24,2.85,2.85,0,0,0-1,.68,3,3,0,0,0-.64,1.08,4.35,4.35,0,0,0-.23,1.44,4.6,4.6,0,0,0,.16,1.25,3.07,3.07,0,0,0,.49,1,2.36,2.36,0,0,0,.84.69,2.67,2.67,0,0,0,1.21.25,2.59,2.59,0,0,0,1.2-.26,2.5,2.5,0,0,0,.81-.65,2.65,2.65,0,0,0,.46-.86,2.84,2.84,0,0,0,.15-.87Z"/><path d="M130,47.34c-.11.12-.27.27-.48.46a4,4,0,0,1-.83.54,6.87,6.87,0,0,1-1.2.45,5.77,5.77,0,0,1-1.57.19,5.29,5.29,0,0,1-2-.36,4.41,4.41,0,0,1-1.54-1,4.51,4.51,0,0,1-1-1.58,5.74,5.74,0,0,1-.35-2,5.22,5.22,0,0,1,.34-1.91,4.67,4.67,0,0,1,1-1.54,4.53,4.53,0,0,1,1.47-1,4.6,4.6,0,0,1,1.87-.38,4.26,4.26,0,0,1,2.06.46,4.16,4.16,0,0,1,1.41,1.22,5.35,5.35,0,0,1,.81,1.74,8,8,0,0,1,.26,2h-7.34a2.73,2.73,0,0,0,.27,1.14,2.86,2.86,0,0,0,.67.9,3.38,3.38,0,0,0,1,.6,2.93,2.93,0,0,0,1.14.22,4.11,4.11,0,0,0,1.94-.4,4.29,4.29,0,0,0,1.1-.78Zm-1.62-4.1a3,3,0,0,0-.76-1.84,2.42,2.42,0,0,0-1.92-.76,2.8,2.8,0,0,0-2,.8,2.59,2.59,0,0,0-.56.83,2.74,2.74,0,0,0-.22,1Z"/><path d="M132.82,46.36a3.76,3.76,0,0,0,1.2.8,4,4,0,0,0,1.62.3,3.49,3.49,0,0,0,1.5-.29,1,1,0,0,0,.6-.91,1.18,1.18,0,0,0-.13-.55,1.26,1.26,0,0,0-.44-.41,3.86,3.86,0,0,0-.82-.33c-.34-.1-.76-.21-1.27-.33a8.2,8.2,0,0,1-1.07-.32,3.52,3.52,0,0,1-.95-.53,2.61,2.61,0,0,1-.68-.8,2.51,2.51,0,0,1,.05-2.32,2.72,2.72,0,0,1,.83-.86,4,4,0,0,1,1.17-.53,5,5,0,0,1,1.35-.18,5.9,5.9,0,0,1,2,.31,4.91,4.91,0,0,1,1.49.87l-1,1.24a3.59,3.59,0,0,0-1-.64,3.9,3.9,0,0,0-1.47-.26,2.89,2.89,0,0,0-1.38.28,1,1,0,0,0-.52.92,1,1,0,0,0,.69.89,11.42,11.42,0,0,0,1.81.55,12,12,0,0,1,1.23.37,3.82,3.82,0,0,1,1,.54,2.42,2.42,0,0,1,.68.81,2.45,2.45,0,0,1,.25,1.16,2.35,2.35,0,0,1-.32,1.23,2.92,2.92,0,0,1-.86.89,4.09,4.09,0,0,1-1.24.54,5.84,5.84,0,0,1-1.46.18,5.14,5.14,0,0,1-4-1.42Z"/><path d="M141.62,35.72h2v2h-2Zm.12,3.68h1.8v9.3h-1.8Z"/><path d="M147.34,50.6a4.41,4.41,0,0,0,1.13.55,5.12,5.12,0,0,0,1.63.23,2.56,2.56,0,0,0,2-.74,2.8,2.8,0,0,0,.66-1.94V47.56l-.37.33a3.45,3.45,0,0,1-.58.4,4.61,4.61,0,0,1-.83.34,3.7,3.7,0,0,1-1.1.15,4.46,4.46,0,0,1-1.81-.35,3.7,3.7,0,0,1-1.33-1,4,4,0,0,1-.82-1.46,5.79,5.79,0,0,1-.28-1.85,5,5,0,0,1,.38-2,4.65,4.65,0,0,1,1.07-1.58,4.83,4.83,0,0,1,1.65-1,5.83,5.83,0,0,1,2.14-.37,10.9,10.9,0,0,1,2.12.2,9.26,9.26,0,0,1,1.58.44V48.7a4.1,4.1,0,0,1-1.17,3.13,4.6,4.6,0,0,1-3.29,1.11,6.6,6.6,0,0,1-2.26-.31,5.06,5.06,0,0,1-1.36-.71ZM152.78,41l-.61-.17a5.84,5.84,0,0,0-1.29-.11,3.57,3.57,0,0,0-1.38.25,3.16,3.16,0,0,0-1.07.7,3.11,3.11,0,0,0-.7,1.07,3.54,3.54,0,0,0-.25,1.36,4.59,4.59,0,0,0,.15,1.2,2.72,2.72,0,0,0,.48,1,2.25,2.25,0,0,0,.83.66,2.79,2.79,0,0,0,1.22.24,3.2,3.2,0,0,0,1.16-.2,2.22,2.22,0,0,0,1.3-1.27,2.46,2.46,0,0,0,.16-.85Z"/><path d="M157,48.7V40c0-.13,0-.32,0-.59h1.72l.06,1.4a5.84,5.84,0,0,1,.44-.53,2.87,2.87,0,0,1,.64-.53,3.85,3.85,0,0,1,.89-.4,3.72,3.72,0,0,1,1.15-.16,3.31,3.31,0,0,1,2.7,1.06,4.42,4.42,0,0,1,.88,2.88V48.7h-1.8V43.26a2.78,2.78,0,0,0-.56-1.91,2,2,0,0,0-1.58-.61,2.45,2.45,0,0,0-1.3.32,2.36,2.36,0,0,0-.83.83,3.6,3.6,0,0,0-.45,1.16,5.89,5.89,0,0,0-.14,1.33V48.7Z"/><path d="M176.4,47.34c-.11.12-.27.27-.48.46a4,4,0,0,1-.83.54,6.87,6.87,0,0,1-1.2.45,5.82,5.82,0,0,1-1.57.19,5.29,5.29,0,0,1-2-.36,4.32,4.32,0,0,1-1.54-1,4.51,4.51,0,0,1-1-1.58,5.53,5.53,0,0,1-.35-2,5.22,5.22,0,0,1,.34-1.91,4.36,4.36,0,0,1,1-1.54,4.54,4.54,0,0,1,3.34-1.41,4.29,4.29,0,0,1,2.06.46,4.16,4.16,0,0,1,1.41,1.22,5.56,5.56,0,0,1,.81,1.74,8,8,0,0,1,.26,2H169.3a2.83,2.83,0,0,0,.94,2,3.38,3.38,0,0,0,1,.6,2.93,2.93,0,0,0,1.14.22,4.14,4.14,0,0,0,1.94-.4,4.29,4.29,0,0,0,1.1-.78Zm-1.62-4.1A3.08,3.08,0,0,0,174,41.4a2.45,2.45,0,0,0-1.92-.76,2.8,2.8,0,0,0-2,.8,2.59,2.59,0,0,0-.56.83,2.54,2.54,0,0,0-.22,1Z"/><path d="M178.64,48.7V40c0-.12,0-.31,0-.58h1.72l.06,1.5a3.44,3.44,0,0,1,.42-.53,3,3,0,0,1,.63-.53,3.62,3.62,0,0,1,.86-.41,3.49,3.49,0,0,1,1.13-.17,3.16,3.16,0,0,1,.55,0,3.59,3.59,0,0,1,.47.12l-.4,1.68a2.66,2.66,0,0,0-.92-.14,2.5,2.5,0,0,0-1.07.22,2.6,2.6,0,0,0-.85.61,3,3,0,0,0-.78,2v4.9Z"/></g></g></svg>