<svg xmlns="http://www.w3.org/2000/svg" viewBox="0 0 102 102"><title>qr</title><g id="レイヤー_2" data-name="レイヤー 2"><g id="レイヤー_1-2" data-name="レイヤー 1"><rect width="4.86" height="4.86"/><rect x="4.86" width="4.86" height="4.86"/><rect x="9.71" width="4.86" height="4.86"/><rect x="14.57" width="4.86" height="4.86"/><rect x="19.43" width="4.86" height="4.86"/><rect x="24.29" width="4.86" height="4.86"/><rect x="29.14" width="4.86" height="4.86"/><rect x="48.57" width="4.86" height="4.86"/><rect x="58.29" width="4.86" height="4.86"/><rect x="68" width="4.86" height="4.86"/><rect x="72.86" width="4.86" height="4.86"/><rect x="77.71" width="4.86" height="4.86"/><rect x="82.57" width="4.86" height="4.86"/><rect x="87.43" width="4.86" height="4.86"/><rect x="92.29" width="4.86" height="4.86"/><rect x="97.14" width="4.86" height="4.86"/><rect y="4.86" width="4.86" height="4.86"/><rect x="29.14" y="4.86" width="4.86" height="4.86"/><rect x="38.86" y="4.86" width="4.86" height="4.86"/><rect x="48.57" y="4.86" width="4.86" height="4.86"/><rect x="58.29" y="4.86" width="4.86" height="4.86"/><rect x="68" y="4.86" width="4.86" height="4.86"/><rect x="97.14" y="4.86" width="4.86" height="4.86"/><rect y="9.71" width="4.86" height="4.86"/><rect x="9.71" y="9.71" width="4.86" height="4.86"/><rect x="14.57" y="9.71" width="4.86" height="4.86"/><rect x="19.43" y="9.71" width="4.86" height="4.86"/><rect x="29.14" y="9.71" width="4.86" height="4.86"/><rect x="38.86" y="9.71" width="4.86" height="4.86"/><rect x="48.57" y="9.71" width="4.86" height="4.86"/><rect x="53.43" y="9.71" width="4.86" height="4.86"/><rect x="68" y="9.71" width="4.86" height="4.86"/><rect x="77.71" y="9.71" width="4.86" height="4.86"/><rect x="82.57" y="9.71" width="4.86" height="4.86"/><rect x="87.43" y="9.71" width="4.86" height="4.86"/><rect x="97.14" y="9.71" width="4.86" height="4.86"/><rect y="14.57" width="4.86" height="4.86"/><rect x="9.71" y="14.57" width="4.86" height="4.86"/><rect x="14.57" y="14.57" width="4.86" height="4.86"/><rect x="19.43" y="14.57" width="4.86" height="4.86"/><rect x="29.14" y="14.57" width="4.86" height="4.86"/><rect x="58.29" y="14.57" width="4.86" height="4.86"/><rect x="68" y="14.57" width="4.86" height="4.86"/><rect x="77.71" y="14.57" width="4.86" height="4.86"/><rect x="82.57" y="14.57" width="4.86" height="4.86"/><rect x="87.43" y="14.57" width="4.86" height="4.86"/><rect x="97.14" y="14.57" width="4.86" height="4.86"/><rect y="19.43" width="4.86" height="4.86"/><rect x="9.71" y="19.43" width="4.86" height="4.86"/><rect x="14.57" y="19.43" width="4.86" height="4.86"/><rect x="19.43" y="19.43" width="4.86" height="4.86"/><rect x="29.14" y="19.43" width="4.86" height="4.86"/><rect x="38.86" y="19.43" width="4.86" height="4.86"/><rect x="43.71" y="19.43" width="4.86" height="4.86"/><rect x="48.57" y="19.43" width="4.86" height="4.86"/><rect x="53.43" y="19.43" width="4.86" height="4.86"/><rect x="58.29" y="19.43" width="4.86" height="4.86"/><rect x="68" y="19.43" width="4.86" height="4.86"/><rect x="77.71" y="19.43" width="4.86" height="4.86"/><rect x="82.57" y="19.43" width="4.86" height="4.86"/><rect x="87.43" y="19.43" width="4.86" height="4.86"/><rect x="97.14" y="19.43" width="4.86" height="4.86"/><rect y="24.29" width="4.86" height="4.86"/><rect x="29.14" y="24.29" width="4.86" height="4.86"/><rect x="38.86" y="24.29" width="4.86" height="4.86"/><rect x="43.71" y="24.29" width="4.86" height="4.86"/><rect x="48.57" y="24.29" width="4.86" height="4.86"/><rect x="68" y="24.29" width="4.86" height="4.86"/><rect x="97.14" y="24.29" width="4.86" height="4.86"/><rect y="29.14" width="4.86" height="4.86"/><rect x="4.86" y="29.14" width="4.86" height="4.86"/><rect x="9.71" y="29.14" width="4.86" height="4.86"/><rect x="14.57" y="29.14" width="4.86" height="4.86"/><rect x="19.43" y="29.14" width="4.86" height="4.86"/><rect x="24.29" y="29.14" width="4.86" height="4.86"/><rect x="29.14" y="29.14" width="4.86" height="4.86"/><rect x="38.86" y="29.14" width="4.86" height="4.86"/><rect x="48.57" y="29.14" width="4.86" height="4.86"/><rect x="58.29" y="29.14" width="4.86" height="4.86"/><rect x="68" y="29.14" width="4.86" height="4.86"/><rect x="72.86" y="29.14" width="4.86" height="4.86"/><rect x="77.71" y="29.14" width="4.86" height="4.86"/><rect x="82.57" y="29.14" width="4.86" height="4.86"/><rect x="87.43" y="29.14" width="4.86" height="4.86"/><rect x="92.29" y="29.14" width="4.86" height="4.86"/><rect x="97.14" y="29.14" width="4.86" height="4.86"/><rect x="38.86" y="34" width="4.86" height="4.86"/><rect y="38.86" width="4.86" height="4.86"/><rect x="4.86" y="38.86" width="4.86" height="4.86"/><rect x="14.57" y="38.86" width="4.86" height="4.86"/><rect x="29.14" y="38.86" width="4.86" height="4.86"/><rect x="34" y="38.86" width="4.86" height="4.86"/><rect x="48.57" y="38.86" width="4.86" height="4.86"/><rect x="53.43" y="38.86" width="4.86" height="4.86"/><rect x="58.29" y="38.86" width="4.86" height="4.86"/><rect x="68" y="38.86" width="4.86" height="4.86"/><rect x="72.86" y="38.86" width="4.86" height="4.86"/><rect x="77.71" y="38.86" width="4.86" height="4.86"/><rect x="87.43" y="38.86" width="4.86" height="4.86"/><rect x="92.29" y="38.86" width="4.86" height="4.86"/><rect y="43.71" width="4.86" height="4.86"/><rect x="9.71" y="43.71" width="4.86" height="4.86"/><rect x="19.43" y="43.71" width="4.86" height="4.86"/><rect x="38.86" y="43.71" width="4.86" height="4.86"/><rect x="43.71" y="43.71" width="4.86" height="4.86"/><rect x="53.43" y="43.71" width="4.86" height="4.86"/><rect x="63.14" y="43.71" width="4.86" height="4.86"/><rect x="68" y="43.71" width="4.86" height="4.86"/><rect x="72.86" y="43.71" width="4.86" height="4.86"/><rect x="77.71" y="43.71" width="4.86" height="4.86"/><rect x="82.57" y="43.71" width="4.86" height="4.86"/><rect x="92.29" y="43.71" width="4.86" height="4.86"/><rect x="97.14" y="43.71" width="4.86" height="4.86"/><rect y="48.57" width="4.86" height="4.86"/><rect x="9.71" y="48.57" width="4.86" height="4.86"/><rect x="24.29" y="48.57" width="4.86" height="4.86"/><rect x="29.14" y="48.57" width="4.86" height="4.86"/><rect x="53.43" y="48.57" width="4.86" height="4.86"/><rect x="68" y="48.57" width="4.86" height="4.86"/><rect x="72.86" y="48.57" width="4.86" height="4.86"/><rect x="82.57" y="48.57" width="4.86" height="4.86"/><rect x="87.43" y="48.57" width="4.86" height="4.86"/><rect x="97.14" y="48.57" width="4.86" height="4.86"/><rect y="53.43" width="4.86" height="4.86"/><rect x="4.86" y="53.43" width="4.86" height="4.86"/><rect x="9.71" y="53.43" width="4.86" height="4.86"/><rect x="14.57" y="53.43" width="4.86" height="4.86"/><rect x="19.43" y="53.43" width="4.86" height="4.86"/><rect x="24.29" y="53.43" width="4.86" height="4.86"/><rect x="34" y="53.43" width="4.86" height="4.86"/><rect x="48.57" y="53.43" width="4.86" height="4.86"/><rect x="58.29" y="53.43" width="4.86" height="4.86"/><rect x="63.14" y="53.43" width="4.86" height="4.86"/><rect x="68" y="53.43" width="4.86" height="4.86"/><rect x="82.57" y="53.43" width="4.86" height="4.86"/><rect x="97.14" y="53.43" width="4.86" height="4.86"/><rect x="4.86" y="58.29" width="4.86" height="4.86"/><rect x="14.57" y="58.29" width="4.86" height="4.86"/><rect x="19.43" y="58.29" width="4.86" height="4.86"/><rect x="24.29" y="58.29" width="4.86" height="4.86"/><rect x="29.14" y="58.29" width="4.86" height="4.86"/><rect x="53.43" y="58.29" width="4.86" height="4.86"/><rect x="63.14" y="58.29" width="4.86" height="4.86"/><rect x="77.71" y="58.29" width="4.86" height="4.86"/><rect x="82.57" y="58.29" width="4.86" height="4.86"/><rect x="92.29" y="58.29" width="4.86" height="4.86"/><rect x="38.86" y="63.14" width="4.86" height="4.86"/><rect x="48.57" y="63.14" width="4.86" height="4.86"/><rect x="72.86" y="63.14" width="4.86" height="4.86"/><rect x="97.14" y="63.14" width="4.86" height="4.86"/><rect y="68" width="4.86" height="4.86"/><rect x="4.86" y="68" width="4.86" height="4.86"/><rect x="9.71" y="68" width="4.86" height="4.86"/><rect x="14.57" y="68" width="4.86" height="4.86"/><rect x="19.43" y="68" width="4.86" height="4.86"/><rect x="24.29" y="68" width="4.86" height="4.86"/><rect x="29.14" y="68" width="4.86" height="4.86"/><rect x="38.86" y="68" width="4.86" height="4.86"/><rect x="43.71" y="68" width="4.86" height="4.86"/><rect x="48.57" y="68" width="4.86" height="4.86"/><rect x="53.43" y="68" width="4.86" height="4.86"/><rect x="58.29" y="68" width="4.86" height="4.86"/><rect x="68" y="68" width="4.86" height="4.86"/><rect x="72.86" y="68" width="4.86" height="4.86"/><rect x="77.71" y="68" width="4.86" height="4.86"/><rect x="82.57" y="68" width="4.86" height="4.86"/><rect x="87.43" y="68" width="4.86" height="4.86"/><rect x="92.29" y="68" width="4.86" height="4.86"/><rect y="72.86" width="4.86" height="4.86"/><rect x="29.14" y="72.86" width="4.86" height="4.86"/><rect x="48.57" y="72.86" width="4.86" height="4.86"/><rect x="63.14" y="72.86" width="4.86" height="4.86"/><rect x="72.86" y="72.86" width="4.86" height="4.86"/><rect x="77.71" y="72.86" width="4.86" height="4.86"/><rect x="92.29" y="72.86" width="4.86" height="4.86"/><rect x="97.14" y="72.86" width="4.86" height="4.86"/><rect y="77.71" width="4.86" height="4.86"/><rect x="9.71" y="77.71" width="4.86" height="4.86"/><rect x="14.57" y="77.71" width="4.86" height="4.86"/><rect x="19.43" y="77.71" width="4.86" height="4.86"/><rect x="29.14" y="77.71" width="4.86" height="4.86"/><rect x="43.71" y="77.71" width="4.86" height="4.86"/><rect x="48.57" y="77.71" width="4.86" height="4.86"/><rect x="58.29" y="77.71" width="4.86" height="4.86"/><rect x="82.57" y="77.71" width="4.86" height="4.86"/><rect x="92.29" y="77.71" width="4.86" height="4.86"/><rect y="82.57" width="4.86" height="4.86"/><rect x="9.71" y="82.57" width="4.86" height="4.86"/><rect x="14.57" y="82.57" width="4.86" height="4.86"/><rect x="19.43" y="82.57" width="4.86" height="4.86"/><rect x="29.14" y="82.57" width="4.86" height="4.86"/><rect x="38.86" y="82.57" width="4.86" height="4.86"/><rect x="48.57" y="82.57" width="4.86" height="4.86"/><rect x="68" y="82.57" width="4.86" height="4.86"/><rect x="77.71" y="82.57" width="4.86" height="4.86"/><rect x="92.29" y="82.57" width="4.86" height="4.86"/><rect x="97.14" y="82.57" width="4.86" height="4.86"/><rect y="87.43" width="4.86" height="4.86"/><rect x="9.71" y="87.43" width="4.86" height="4.86"/><rect x="14.57" y="87.43" width="4.86" height="4.86"/><rect x="19.43" y="87.43" width="4.86" height="4.86"/><rect x="29.14" y="87.43" width="4.86" height="4.86"/><rect x="43.71" y="87.43" width="4.86" height="4.86"/><rect x="53.43" y="87.43" width="4.86" height="4.86"/><rect x="63.14" y="87.43" width="4.86" height="4.86"/><rect x="68" y="87.43" width="4.86" height="4.86"/><rect x="72.86" y="87.43" width="4.86" height="4.86"/><rect x="77.71" y="87.43" width="4.86" height="4.86"/><rect x="82.57" y="87.43" width="4.86" height="4.86"/><rect x="97.14" y="87.43" width="4.86" height="4.86"/><rect y="92.29" width="4.86" height="4.86"/><rect x="29.14" y="92.29" width="4.86" height="4.86"/><rect x="38.86" y="92.29" width="4.86" height="4.86"/><rect x="48.57" y="92.29" width="4.86" height="4.86"/><rect x="53.43" y="92.29" width="4.86" height="4.86"/><rect x="58.29" y="92.29" width="4.86" height="4.86"/><rect x="77.71" y="92.29" width="4.86" height="4.86"/><rect y="97.14" width="4.86" height="4.86"/><rect x="4.86" y="97.14" width="4.86" height="4.86"/><rect x="9.71" y="97.14" width="4.86" height="4.86"/><rect x="14.57" y="97.14" width="4.86" height="4.86"/><rect x="19.43" y="97.14" width="4.86" height="4.86"/><rect x="24.29" y="97.14" width="4.86" height="4.86"/><rect x="29.14" y="97.14" width="4.86" height="4.86"/><rect x="38.86" y="97.14" width="4.86" height="4.86"/><rect x="43.71" y="97.14" width="4.86" height="4.86"/><rect x="48.57" y="97.14" width="4.86" height="4.86"/><rect x="72.86" y="97.14" width="4.86" height="4.86"/><rect x="77.71" y="97.14" width="4.86" height="4.86"/><rect x="92.29" y="97.14" width="4.86" height="4.86"/></g></g></svg>