<svg xmlns="http://www.w3.org/2000/svg" viewBox="0 0 610.27 593.67"><title>sou</title><g id="レイヤー_2" data-name="レイヤー 2"><g id="レイヤー_1-2" data-name="レイヤー 1"><path d="M610.27,261.64c0,6-57.11,19.92-71,33.2a10.72,10.72,0,0,1-6,2c-7.3,0-158.71-57.11-230.43-156.06-2,1.33-3.32,3.32-7.3,8a745.5,745.5,0,0,1-77,69.06c33.2,4,53.12,4.65,67.73,4.65h12c2,0,5.32-2.66,7.31-5.31,16.6-22.58,19.92-24.57,23.91-24.57,1.32,0,3.32.66,4,.66,20.59,9.3,39.18,26.56,39.18,35.86,0,4.65-3.32,8.63-12.62,8.63H283.55c-15.93,0-26.56,1.33-62.42,5.32h-.66c-6,0-12.62-6-18.59-12.62-13.95,10-28.56,19.92-42.5,28.55,13.28,4.65,33.86,12.62,43.16,18.6l2,1.33h186.6c3.32,0,5.32-1.33,8-4,12.62-15.27,15.28-17.26,20.59-17.26,4,0,48.47,21.25,48.47,37.18,0,6.64-8,10.63-14.61,14.61-11.95,6.64-11.95,6.64-11.95,19.93v6c0,25.24,3.32,48.48,4.65,73v.66c0,13.28-12.62,20.59-23.91,20.59-9.29,0-17.26-4.65-17.26-15.94v-1.33H180c-37.19,128.83-161.37,174-177.3,174-1.33,0-2.66,0-2.66-1.33s2.66-3.32,10-7.31c91.64-47.81,140.12-139.45,140.12-236.4,0-6,0-11.95-.67-20.59,0-5.31-.66-33.2-3.32-53.12-72.38,42.5-133.47,59.1-141.44,59.1-2.66,0-4-.67-4-1.33,0-2,3.32-4.65,10.63-8,182.62-85,253-194.57,259-217.15.67-2.65.67-4,2.66-4,2.66,0,45.82,14.61,58.44,25.23q4,3,4,6c0,4-6,7.3-19.92,9.3C369.22,191.25,490.08,247,604.3,259.65,608.28,260.31,610.27,261,610.27,261.64ZM578.4,79c0,4-2.66,7.31-13.95,7.31H391.8l2,37.85v1.33c0,7.3-7.31,16.6-23.91,16.6-8.63,0-17.26-4.65-17.26-14.61v-1.33c.66-10.62,1.33-25.9,1.33-39.84H232.42c.67,16.6,1.33,33.2,1.33,41.17,0,10.62-12.62,17.27-23.91,17.27-9.29,0-17.26-4-17.26-14v-1.33c.66-9.29,1.33-26.56,1.33-43.16C152.07,87,92.3,89,47.15,93.63h-.67c-11.95,0-29.88-24.57-29.88-33.2,51.8,6.64,128.83,9.3,178,10V48.48c0-6.64-2-27.89-5.31-43.83,0-1.33-.67-2.66-.67-3.32,0-1.33.67-1.33,2.66-1.33C201.88,0,257,4.65,257,17.27c0,3.32-3.32,6.64-12.61,10.62-8.64,3.32-10.63,6-12,18.59V71.05H354V49.8a258.07,258.07,0,0,0-5.32-45.15c0-1.33-.66-2.66-.66-3.32C348,0,348.63,0,350.62,0c10.63,0,65.75,4,65.75,17.27,0,2.65-2.66,6.64-12.62,10.62-8.63,3.32-11.29,6-11.95,18.59V71.05h77.69a13.53,13.53,0,0,0,10.63-6S506,25.23,517.3,25.23c2,0,3.32.67,4.65.67C538.55,31.88,578.4,66.41,578.4,79ZM492.07,475.47c0,6.64-8.63,10.62-15.27,13.94-10.63,6-13.28,10-13.28,26.57,0,14.61,4,34.53,5.31,56.44v1.33c0,12-13.28,19.92-24.57,19.92-9.3,0-17.93-4.65-17.93-15.94V558.48H221.8c0,5.31.66,11.29.66,15.27,0,12-12.62,19.26-24.57,19.26-10,0-19.26-5.31-19.26-17.27v-.66c.67-21.92,5.32-45.82,5.32-67.74v-4c0-7.31-1.33-39.18-6.65-59.77a11.74,11.74,0,0,1-.66-4c0-.66,0-1.33,1.33-1.33,8.63,0,48.48,16.6,59.1,22.58H411.72c3.32,0,6.64,0,9.3-3.32,3.32-4.65,13.28-16.6,18.59-16.6C448.24,440.94,492.07,463.52,492.07,475.47ZM188.59,351.29l-.66,10c-.66,10.63-1.33,22.58-4,34.53H405.08c.66-17.26,1.33-31.21,1.33-44.49Zm216.49-49.14a7.2,7.2,0,0,0-7.31-6.64H195.9c-4.65,3.32-6.64,8-6.64,14.61v24.57H406.41C406.41,324.73,405.74,314.1,405.08,302.15Zm21.25,182.62a6.52,6.52,0,0,0-6.64-6H233.75l-1.33.66c-8,4.65-11.29,7.31-11.29,39.18,0,7.31.67,15.28.67,23.91H427C427,520,427,498.05,426.33,484.77Z"/></g></g></svg>