<svg xmlns="http://www.w3.org/2000/svg" viewBox="0 0 18.79 156"><defs><style>.cls-1,.cls-2,.cls-3,.cls-4{fill:none;stroke:#000;}.cls-1{stroke-width:2px;}.cls-3{stroke-width:4px;}.cls-4{stroke-width:3px;}</style></defs><title>barcode</title><g id="レイヤー_2" data-name="レイヤー 2"><g id="レイヤー_1-2" data-name="レイヤー 1"><line class="cls-1" x1="18.79" y1="1" y2="1"/><line class="cls-2" x1="18.79" y1="3.5" y2="3.5"/><line class="cls-2" x1="18.79" y1="6.5" y2="6.5"/><line class="cls-3" x1="18.79" y1="13" y2="13"/><line class="cls-2" x1="18.79" y1="16.5" y2="16.5"/><line class="cls-4" x1="18.79" y1="19.5" y2="19.5"/><line class="cls-3" x1="18.79" y1="24" y2="24"/><line class="cls-4" x1="18.79" y1="28.5" y2="28.5"/><line class="cls-2" x1="18.79" y1="31.5" y2="31.5"/><line class="cls-2" x1="18.79" y1="33.5" y2="33.5"/><line class="cls-2" x1="18.79" y1="36.5" y2="36.5"/><line class="cls-1" x1="18.79" y1="39" y2="39"/><line class="cls-2" x1="18.79" y1="44.5" y2="44.5"/><line class="cls-3" x1="18.79" y1="49" y2="49"/><line class="cls-2" x1="18.79" y1="52.5" y2="52.5"/><line class="cls-2" x1="18.79" y1="55.5" y2="55.5"/><line class="cls-3" x1="18.79" y1="59" y2="59"/><line class="cls-2" x1="18.79" y1="63.5" y2="63.5"/><line class="cls-2" x1="18.79" y1="66.5" y2="66.5"/><line class="cls-3" x1="18.79" y1="71" y2="71"/><line class="cls-2" x1="18.79" y1="75.5" y2="75.5"/><line class="cls-2" x1="18.79" y1="77.5" y2="77.5"/><line class="cls-2" x1="18.79" y1="80.5" y2="80.5"/><line class="cls-3" x1="18.79" y1="85" y2="85"/><line class="cls-2" x1="18.79" y1="88.5" y2="88.5"/><line class="cls-2" x1="18.79" y1="91.5" y2="91.5"/><line class="cls-1" x1="18.79" y1="94" y2="94"/><line class="cls-2" x1="18.79" y1="99.5" y2="99.5"/><line class="cls-1" x1="18.79" y1="105" y2="105"/><line class="cls-2" x1="18.79" y1="107.5" y2="107.5"/><line class="cls-1" x1="18.79" y1="111" y2="111"/><line class="cls-4" x1="18.79" y1="115.5" y2="115.5"/><line class="cls-2" x1="18.79" y1="119.5" y2="119.5"/><line class="cls-1" x1="18.79" y1="122" y2="122"/><line class="cls-4" x1="18.79" y1="125.5" y2="125.5"/><line class="cls-2" x1="18.79" y1="129.5" y2="129.5"/><line class="cls-2" x1="18.79" y1="132.5" y2="132.5"/><line class="cls-2" x1="18.79" y1="134.5" y2="134.5"/><line class="cls-1" x1="18.79" y1="140" y2="140"/><line class="cls-1" x1="18.79" y1="144" y2="144"/><line class="cls-4" x1="18.79" y1="149.5" y2="149.5"/><line class="cls-2" x1="18.79" y1="152.5" y2="152.5"/><line class="cls-1" x1="18.79" y1="155" y2="155"/></g></g></svg>