<svg xmlns="http://www.w3.org/2000/svg" viewBox="0 0 172.71 113.16"><title>title</title><g id="レイヤー_2" data-name="レイヤー 2"><g id="レイヤー_1-2" data-name="レイヤー 1"><path d="M82.71,35.46c0,.81-7.74,2.7-9.63,4.5a1.45,1.45,0,0,1-.81.27c-1,0-21.51-7.74-31.23-21.15a6.36,6.36,0,0,0-1,1.08,101,101,0,0,1-10.44,9.36,73.81,73.81,0,0,0,9.18.63h1.62a1.74,1.74,0,0,0,1-.72c2.25-3.06,2.7-3.33,3.24-3.33.18,0,.45.09.54.09,2.79,1.26,5.31,3.6,5.31,4.86,0,.63-.45,1.17-1.71,1.17H38.43a73.27,73.27,0,0,0-8.46.72h-.09c-.81,0-1.71-.81-2.52-1.71-1.89,1.35-3.87,2.7-5.76,3.87a35.67,35.67,0,0,1,5.85,2.52l.27.18H53a1.41,1.41,0,0,0,1.08-.54c1.71-2.07,2.07-2.34,2.79-2.34.54,0,6.57,2.88,6.57,5,0,.9-1.08,1.44-2,2-1.62.9-1.62.9-1.62,2.7v.81c0,3.42.45,6.57.63,9.9v.09a3,3,0,0,1-3.24,2.79,2.08,2.08,0,0,1-2.34-2.16v-.18H24.39c-5,17.46-21.87,23.58-24,23.58-.18,0-.36,0-.36-.18s.36-.45,1.35-1c12.42-6.48,19-18.9,19-32,0-.81,0-1.62-.09-2.79a70.44,70.44,0,0,0-.45-7.2C10,42,1.71,44.28.63,44.28c-.36,0-.54-.09-.54-.18,0-.27.45-.63,1.44-1.08C26.28,31.5,35.82,16.65,36.63,13.59c.09-.36.09-.54.36-.54s6.21,2,7.92,3.42a1.09,1.09,0,0,1,.54.81c0,.54-.81,1-2.7,1.26C50,25.92,66.42,33.48,81.9,35.19Q82.71,35.33,82.71,35.46ZM78.39,10.71c0,.54-.36,1-1.89,1H53.1l.27,5.13V17c0,1-1,2.25-3.24,2.25a2.09,2.09,0,0,1-2.34-2V17.1c.09-1.44.18-3.51.18-5.4H31.5c.09,2.25.18,4.5.18,5.58,0,1.44-1.71,2.34-3.24,2.34-1.26,0-2.34-.54-2.34-1.89v-.18c.09-1.26.18-3.6.18-5.85-5.67.09-13.77.36-19.89,1H6.3c-1.62,0-4-3.33-4-4.5,7,.9,17.46,1.26,24.12,1.35v-3A39.42,39.42,0,0,0,25.65.63a3.9,3.9,0,0,0-.09-.45c0-.18.09-.18.36-.18,1.44,0,8.91.63,8.91,2.34,0,.45-.45.9-1.71,1.44s-1.44.81-1.62,2.52V9.63H48V6.75A35,35,0,0,0,47.25.63a3.9,3.9,0,0,0-.09-.45c0-.18.09-.18.36-.18C49,0,56.43.54,56.43,2.34c0,.36-.36.9-1.71,1.44-1.17.45-1.53.81-1.62,2.52V9.63H63.63a1.83,1.83,0,0,0,1.44-.81s3.51-5.4,5-5.4c.27,0,.45.09.63.09C73,4.32,78.39,9,78.39,10.71ZM66.69,64.44c0,.9-1.17,1.44-2.07,1.89-1.44.81-1.8,1.35-1.8,3.6,0,2,.54,4.68.72,7.65v.18c0,1.62-1.8,2.7-3.33,2.7a2.15,2.15,0,0,1-2.43-2.16V75.69H30.06c0,.72.09,1.53.09,2.07,0,1.62-1.71,2.61-3.33,2.61A2.34,2.34,0,0,1,24.21,78v-.09c.09-3,.72-6.21.72-9.18v-.54a41.68,41.68,0,0,0-.9-8.1,1.58,1.58,0,0,1-.09-.54c0-.09,0-.18.18-.18,1.17,0,6.57,2.25,8,3.06H55.8A1.4,1.4,0,0,0,57.06,62c.45-.63,1.8-2.25,2.52-2.25C60.75,59.76,66.69,62.82,66.69,64.44ZM25.56,47.61,25.47,49a29.89,29.89,0,0,1-.54,4.68h30c.09-2.34.18-4.23.18-6ZM54.9,41a1,1,0,0,0-1-.9H26.55a2.21,2.21,0,0,0-.9,2v3.33H55.08C55.08,44,55,42.57,54.9,41ZM57.78,65.7a.88.88,0,0,0-.9-.81H31.68L31.5,65c-1.08.63-1.53,1-1.53,5.31,0,1,.09,2.07.09,3.24H57.87C57.87,70.47,57.87,67.5,57.78,65.7Z"/><path d="M172.71,53.91c0,.81-6.93,1.62-9,4a1.28,1.28,0,0,1-1.08.54c-.9,0-14.94-8.55-19.8-31.41-3.06,17-11.52,27.63-30.06,32.85a14.81,14.81,0,0,1-2,.45.39.39,0,0,1-.27-.09c0-.27.81-.72,1.71-1.08,15.48-6.39,23-16.65,25.56-32-2.88.09-6.12.36-10.26.81h-.09c-.72,0-1.71-.9-2.52-1.89-12.51,31.5-32.76,37.26-33.48,37.26-.18,0-.27-.09-.27-.18,0-.27.72-1,2.34-2,22.41-13.77,28.71-44.91,28.71-45,0-.36-.27-.54-.72-.54h-11c-1,2.61-2.07,4.95-3.15,7.2.54,0,1.17-.09,1.8-.09,1.89,0,7.74.27,7.74,4.68,0,1.62-1,3.06-2.43,3.06a3.69,3.69,0,0,1-2.7-1.62,21.77,21.77,0,0,0-5-4.86,69.85,69.85,0,0,1-5.31,8.73,18.07,18.07,0,0,1,2.25-.09c2.34,0,7.74.36,7.74,4.68,0,1.62-1,3.06-2.43,3.06a3.69,3.69,0,0,1-2.7-1.62,21.73,21.73,0,0,0-5.49-5.13,51.1,51.1,0,0,1-7,7.83c-1.44,1.26-2.16,1.8-2.52,1.8-.09,0-.09-.09-.09-.18A6.85,6.85,0,0,1,92.7,40.5c5-5.94,11.25-20,14.49-31.86a31.28,31.28,0,0,0,1.08-7.56c0-.63.18-.72.36-.72,1.08,0,8.91,2.25,8.91,4,0,.63-.63,1.17-1.8,1.53-1.8.54-1.8-.18-3,3.42l-1.35,3.87H122a1.82,1.82,0,0,0,1.26-.81,8.78,8.78,0,0,1,2.25-1.71c.9,0,6.48,4.14,6.48,5.4,0,1-1.44,1.44-2.25,1.71a3,3,0,0,0-2.7,2.34c-.36,1.26-.81,2.43-1.26,3.6,4.5.54,8.82.81,12.42,1A80.68,80.68,0,0,0,138.78,14a70.5,70.5,0,0,0-.9-13V.63c0-.09,0-.27.72-.27.54,0,8.91.81,8.91,3.06,0,.63-.54,1.26-1.71,1.8s-1.62.45-1.62,4.05a102.53,102.53,0,0,1-1,15.48H154.8a1.39,1.39,0,0,0,1.17-.81c.81-1.17,3.6-5.13,4.59-5.13,1.17,0,7.65,4.59,7.65,7,0,.63-.36,1.17-1.8,1.17H144.27c4.23,12.87,13.86,22.86,27.63,26.46C172.44,53.64,172.71,53.73,172.71,53.91ZM108.09,65c0,8.19-5.94,16-12.24,16-2.25,0-3.69-1.35-3.69-3s1.26-3.33,4.23-4.41c5.76-2.16,8.64-6.57,10.62-10.44.27-.45.45-.72.63-.72S108.09,62.73,108.09,65Zm17.1,9.72c0,3.87-2.52,5.67-4.23,5.67-1.35,0-2.61-1.08-2.61-3.6a5.54,5.54,0,0,1,.09-1.17,52.34,52.34,0,0,0,.27-6,41.18,41.18,0,0,0-.27-5.31,3.1,3.1,0,0,1-.09-.81c0-.18,0-.27.09-.27.9,0,6.66,6.57,6.75,11.34Zm20.7.72c0,2.52-1.53,4.32-3.15,4.32-1.26,0-2.61-1.08-3.33-3.69a62.77,62.77,0,0,0-4.68-11.88,3.82,3.82,0,0,1-.45-1.08c0-.09,0-.09.18-.09C136.26,63,145.89,69,145.89,75.42Zm13.32-59.76a2.94,2.94,0,0,1-2.7,3.15,3.81,3.81,0,0,1-3.06-2,23.16,23.16,0,0,0-7-6.12c-.45-.27-.72-.45-.72-.54,0-.27,1.89-.36,3.06-.36C154,9.81,159.21,11.61,159.21,15.66Zm9.36,59.76c0,2.16-1.17,3.6-2.7,3.6-1.26,0-2.61-.9-3.87-3.06-2.7-4.68-7.47-9.81-9.9-12.24-.54-.54-.81-.81-.81-1s.09-.18.36-.18C154.71,62.55,168.57,68.13,168.57,75.42Z"/><path d="M27.14,103.69l9.51-5,.89,1.76-7.67,4,7.67,4-.89,1.77-9.51-5Z"/><path d="M46.56,109.76a4.9,4.9,0,0,0,1.56,1,5.33,5.33,0,0,0,2.11.39,4.49,4.49,0,0,0,2-.38,1.23,1.23,0,0,0,.78-1.18,1.47,1.47,0,0,0-.17-.72,1.64,1.64,0,0,0-.57-.53,4.83,4.83,0,0,0-1.07-.43c-.44-.13-1-.27-1.65-.43a10,10,0,0,1-1.39-.41,5.14,5.14,0,0,1-1.24-.69,3.39,3.39,0,0,1-.88-1,3,3,0,0,1-.34-1.47,2.91,2.91,0,0,1,.4-1.55,3.71,3.71,0,0,1,1.08-1.12,5.4,5.4,0,0,1,1.52-.69,6.85,6.85,0,0,1,1.76-.23,8,8,0,0,1,2.64.4A6.18,6.18,0,0,1,55,101.85l-1.27,1.62a4.76,4.76,0,0,0-1.36-.84,5.15,5.15,0,0,0-1.92-.33,3.82,3.82,0,0,0-1.79.36,1.26,1.26,0,0,0-.68,1.2,1.23,1.23,0,0,0,.9,1.15,14.55,14.55,0,0,0,2.35.72,14.49,14.49,0,0,1,1.6.48,4.88,4.88,0,0,1,1.3.7,3.2,3.2,0,0,1,.89,1,3.33,3.33,0,0,1,.32,1.51,3.1,3.1,0,0,1-.41,1.6,3.64,3.64,0,0,1-1.12,1.16,5.46,5.46,0,0,1-1.61.7,7.44,7.44,0,0,1-1.9.23,6.69,6.69,0,0,1-5.15-1.84Z"/><path d="M63.88,113.16a6.38,6.38,0,0,1-2.58-.5,6.08,6.08,0,0,1-2-1.39,6.46,6.46,0,0,1-1.81-4.53,6.41,6.41,0,0,1,.48-2.48,6.48,6.48,0,0,1,1.33-2,6.08,6.08,0,0,1,2-1.39,6.39,6.39,0,0,1,2.58-.51,6.32,6.32,0,0,1,4.57,1.9,6.51,6.51,0,0,1,1.34,2,6.67,6.67,0,0,1,0,5,6.51,6.51,0,0,1-1.34,2,6.26,6.26,0,0,1-4.57,1.89Zm0-2a3.78,3.78,0,0,0,1.69-.38,4,4,0,0,0,1.27-1,4.2,4.2,0,0,0,.79-1.4,4.8,4.8,0,0,0,0-3.23,4.37,4.37,0,0,0-.8-1.41,4,4,0,0,0-1.28-1,3.51,3.51,0,0,0-1.67-.38,3.59,3.59,0,0,0-1.69.38,4,4,0,0,0-1.28,1,4.25,4.25,0,0,0-.79,1.41,5,5,0,0,0-.27,1.62,4.86,4.86,0,0,0,.27,1.61,4.37,4.37,0,0,0,.8,1.41,4.31,4.31,0,0,0,1.28,1A3.65,3.65,0,0,0,63.88,111.14Z"/><path d="M72.85,100.71h2.34v7.1a3.6,3.6,0,0,0,.7,2.48,2.62,2.62,0,0,0,2,.77,3.07,3.07,0,0,0,1.67-.42,3.28,3.28,0,0,0,1.08-1.08,4.52,4.52,0,0,0,.59-1.5,9.06,9.06,0,0,0,.17-1.73v-5.62h2.34v11.35c0,.25,0,.5,0,.74H81.56L81.48,111c-.16.2-.35.43-.57.67a3.81,3.81,0,0,1-.84.67,5.44,5.44,0,0,1-1.14.5,4.81,4.81,0,0,1-1.48.21A4.26,4.26,0,0,1,74,111.7,5.77,5.77,0,0,1,72.85,108Z"/><path d="M86.76,111l6.91-8.26H87v-2h9.54v1.87l-7,8.27h7.12v2H86.76Z"/><path d="M110.42,111a6.42,6.42,0,0,1-.63.6,5.31,5.31,0,0,1-1.08.7,8.22,8.22,0,0,1-1.56.59,7.93,7.93,0,0,1-2,.24,6.87,6.87,0,0,1-2.57-.46,5.79,5.79,0,0,1-2-1.33,5.86,5.86,0,0,1-1.29-2.05,7.28,7.28,0,0,1-.46-2.66,6.78,6.78,0,0,1,.45-2.48,5.92,5.92,0,0,1,1.24-2,6.16,6.16,0,0,1,1.91-1.34,5.91,5.91,0,0,1,2.44-.49,5.66,5.66,0,0,1,2.67.59,5.35,5.35,0,0,1,1.84,1.59,7,7,0,0,1,1,2.26,10.58,10.58,0,0,1,.34,2.65h-9.55a3.67,3.67,0,0,0,.36,1.49,3.58,3.58,0,0,0,.87,1.17,4.12,4.12,0,0,0,1.25.78,3.86,3.86,0,0,0,1.48.28,5.35,5.35,0,0,0,2.52-.52,5.07,5.07,0,0,0,1.43-1Zm-2.11-5.33a3.93,3.93,0,0,0-1-2.39,3.17,3.17,0,0,0-2.49-1,3.75,3.75,0,0,0-1.5.29,3.6,3.6,0,0,0-1.13.75,3.33,3.33,0,0,0-.73,1.08,3.73,3.73,0,0,0-.29,1.26Z"/><path d="M113.33,112.8V101.48c0-.17,0-.42,0-.77h2.24l.08,1.82a7.35,7.35,0,0,1,.57-.69,3.85,3.85,0,0,1,.83-.69,4.78,4.78,0,0,1,1.16-.52,4.92,4.92,0,0,1,1.49-.21,4.29,4.29,0,0,1,3.51,1.38,5.71,5.71,0,0,1,1.15,3.75v7.25H122v-7.07a3.58,3.58,0,0,0-.73-2.48,2.66,2.66,0,0,0-2.06-.8,3.16,3.16,0,0,0-1.69.42,3.28,3.28,0,0,0-1.08,1.08,5,5,0,0,0-.58,1.51,8.23,8.23,0,0,0-.18,1.72v5.62Z"/><path d="M132.46,108.42l7.67-4-7.67-4,.89-1.76,9.51,5v1.51l-9.51,5Z"/></g></g></svg>