<svg xmlns="http://www.w3.org/2000/svg" viewBox="0 0 44.88 142.9"><title>side</title><g id="レイヤー_2" data-name="レイヤー 2"><g id="レイヤー_1-2" data-name="レイヤー 1"><path d="M44.88,24.76,20.13,26.62v-3.2l14.41-1-16-8.76,16-4.85L20.13,4.29V.86L44.34,8.69,25.86,14.41Z"/><path d="M33.93,45.45,12.23,33V29.27l9.61,5.55,12.09-4.94v3.46l-8.82,3.41,8.82,5Z"/><path d="M42.75,87,19.16,75.16,35,70.68,18.9,62.78l23.85-6.94v3.43L27.29,63.5l16.23,8L27.7,76l15.05,7.4Z"/><path d="M27.16,102a7.17,7.17,0,0,1-5.32-2.19,7.41,7.41,0,0,1-2.15-5.39,7.57,7.57,0,0,1,2-5.48,6.84,6.84,0,0,1,5.18-2.14A7,7,0,0,1,32.24,89a7.7,7.7,0,0,1,2.14,5.57,7.29,7.29,0,0,1-2,5.34A6.86,6.86,0,0,1,27.16,102Zm.16-3.26a4.26,4.26,0,0,0,3.15-1.16,4,4,0,0,0,1.2-3,4.28,4.28,0,0,0-1.33-3.23A4.74,4.74,0,0,0,27,90a4.55,4.55,0,0,0-3.29,1.2,4.09,4.09,0,0,0-1.28,3.11,4,4,0,0,0,1.4,3.13A5.07,5.07,0,0,0,27.32,98.69Z"/><path d="M33.93,109.7l-1.19-.14a4.81,4.81,0,0,1,1.55,3.31,3.88,3.88,0,0,1-1.07,2.66l-2.66-2.06a2.76,2.76,0,0,0,.76-1.79,2.32,2.32,0,0,0-.24-1.08,2.19,2.19,0,0,0-.76-.82,4.78,4.78,0,0,0-1.34-.57,13.76,13.76,0,0,0-2-.36L20.13,108v-3.23l13.8,1.7Z"/><path d="M44.87,122.52l-16.3-2,5.36,5.8v4.33l-6.3-7.24-7.5,5.81V125.3l6.56-5-6.56-.81v-3.24l24.74,3Z"/><path d="M32.4,141.62l-1.83-1.83a3.74,3.74,0,0,0,1.16-2.39,1.84,1.84,0,0,0-.42-1.24,1.32,1.32,0,0,0-1-.49,1.38,1.38,0,0,0-1,.41,8.52,8.52,0,0,0-1.14,1.72,8,8,0,0,1-1.91,2.49A3.43,3.43,0,0,1,24,141a4,4,0,0,1-3.15-1.36A5.43,5.43,0,0,1,19.69,136a6,6,0,0,1,2.74-5l1.48,2.12a3.66,3.66,0,0,0-1.57,2.78,2,2,0,0,0,.44,1.34,1.43,1.43,0,0,0,1.14.51,1.3,1.3,0,0,0,1-.42,6.77,6.77,0,0,0,.53-.72c.22-.35.49-.81.8-1.39A6.7,6.7,0,0,1,27.94,133a3.6,3.6,0,0,1,2.11-.6,4,4,0,0,1,3.1,1.38,5.05,5.05,0,0,1,1.23,3.5A6,6,0,0,1,32.4,141.62Z"/><rect width="3.65" height="142.9"/></g></g></svg>