<svg xmlns="http://www.w3.org/2000/svg" viewBox="0 0 1079.1 258.13"><title>title</title><g id="レイヤー_2" data-name="レイヤー 2"><g id="レイヤー_1-2" data-name="レイヤー 1"><path d="M48,4.5,90.6,137.1,133.2,4.5H165l42.6,132.6L250.2,4.5h48L230.1,204.6h-39l-42-121.5-42,121.5h-39L0,4.5Z"/><path d="M498.6,29.1c18.9,18.3,31.2,44.7,31.2,75.6,0,26.7-9.6,54-31.2,75-18.6,18-43.8,29.4-77.4,29.4-37.5,0-63-15-78-29.4-19.2-18-31.2-45-31.2-74.4,0-28.8,12.9-57.9,30.9-75.9C356.4,15.9,381.3,0,421.2,0,452.4,0,478.5,9.6,498.6,29.1ZM377.1,59.7c-8.7,8.4-17.7,23.1-17.7,45.3,0,18.3,6,33,18.3,45,12.9,12.3,27.3,16.5,42.9,16.5,20.4,0,34.8-7.5,44.4-17.1,7.8-7.5,17.4-21.6,17.4-44.7,0-20.7-8.4-36-17.4-45-9.9-9.6-25.8-17.1-44.1-17.1C403.5,42.6,387.9,48.9,377.1,59.7Z"/><path d="M634.5,4.5c25.5,0,41.4,8.4,51,17.4,8.4,8.1,17.4,22.5,17.4,44.7,0,12.6-2.7,28.2-15.6,40.8a63,63,0,0,1-27.9,15.3l61.5,81.9H664.5l-54-78.9v78.9H564.3V4.5Zm-24,90.9H621c8.4,0,19.8-.9,27.6-8.7,3.3-3.3,7.5-9.6,7.5-19.5,0-11.4-5.4-17.4-9.3-20.4-7.5-5.7-19.5-6.3-25.5-6.3H610.5Z"/><path d="M792.6,87.9,861,4.5h56.4l-81,94.8,87.3,105.3H864.3l-71.7-88.8v88.8H746.4V4.5h46.2Z"/><path d="M1050.6,53.4c-15-13.5-27.9-14.4-33.6-14.4-6.3,0-14.1.9-19.5,6.9a17.89,17.89,0,0,0-5.1,12.6c0,4.8,1.5,8.4,4.5,11.1,4.8,4.5,11.7,6.3,25.2,11.4l15,5.7c8.7,3.3,19.5,7.8,27.3,15.3,11.7,11.1,14.7,25.5,14.7,37.2,0,20.7-7.2,38.7-17.7,49.5-17.7,18.6-43.5,20.4-56.7,20.4-14.4,0-27-2.1-39.6-8.4-10.2-5.1-21.9-14.4-29.4-21.9l24-33c5.1,5.1,13.2,12,18.6,15.3a46.48,46.48,0,0,0,25.2,7.2c6,0,14.4-1.2,21-6.9a20.7,20.7,0,0,0,7.2-16.2c0-6.6-2.7-10.8-6.9-14.4-5.4-4.5-17.7-9-23.4-11.1L984.9,114c-9.3-3.3-20.1-7.5-27.9-15.9C946.5,87,945,72.9,945,63.3c0-17.7,5.4-32.7,17.4-45C976.5,3.9,993.3,0,1011.9,0c13.8,0,36,2.4,59.4,19.8Z"/><path d="M351.92,243.41v4.38a7.86,7.86,0,0,0-2-1.89,3.92,3.92,0,0,0-2.06-.52,4.06,4.06,0,0,0-3.09,1.3,4.58,4.58,0,0,0-1.23,3.27,4.68,4.68,0,0,0,1.18,3.29,4,4,0,0,0,3.06,1.29,4.21,4.21,0,0,0,2.1-.51,8.17,8.17,0,0,0,2.06-1.94v4.35a8.53,8.53,0,0,1-4,1,7.71,7.71,0,0,1-5.54-2.13,7.57,7.57,0,0,1,0-10.74,7.63,7.63,0,0,1,5.54-2.2A8.29,8.29,0,0,1,351.92,243.41Z"/><path d="M354.44,249.83a7.07,7.07,0,0,1,2.22-5.26,7.38,7.38,0,0,1,5.39-2.17,7.48,7.48,0,0,1,5.42,2.18,7.3,7.3,0,0,1,2.19,5.37,7.2,7.2,0,0,1-2.21,5.37,7.52,7.52,0,0,1-5.46,2.15,7.28,7.28,0,0,1-5.38-2.19A7.42,7.42,0,0,1,354.44,249.83Zm3.37.06a4.78,4.78,0,0,0,1.15,3.38,4.44,4.44,0,0,0,6.18,0,5.4,5.4,0,0,0,0-6.66,4.41,4.41,0,0,0-6.15,0A4.57,4.57,0,0,0,357.81,249.89Z"/><path d="M376.55,245.87v11.19h-3.3V245.87h-1.4V242.8h1.4v-5.23h3.3v5.23h2.56v3.07Z"/><path d="M394.35,250.71H384.12a4.34,4.34,0,0,0,1.14,2.79,3.48,3.48,0,0,0,2.6,1,3.34,3.34,0,0,0,2-.59,8.41,8.41,0,0,0,1.81-2.16l2.78,1.55a11.55,11.55,0,0,1-1.36,1.88,7.65,7.65,0,0,1-1.54,1.29,6.27,6.27,0,0,1-1.77.74,8.53,8.53,0,0,1-2.07.23,6.71,6.71,0,0,1-5.13-2.05,7.66,7.66,0,0,1-1.93-5.47,7.89,7.89,0,0,1,1.87-5.48,7.14,7.14,0,0,1,10-.06,7.86,7.86,0,0,1,1.82,5.52ZM391,248a3.14,3.14,0,0,0-3.32-2.63,3.48,3.48,0,0,0-1.13.18,3.22,3.22,0,0,0-1,.53,3.42,3.42,0,0,0-.74.82,4.2,4.2,0,0,0-.47,1.1Z"/><path d="M398,242.8h3.3v1.27a6.16,6.16,0,0,1,1.61-1.3,3.61,3.61,0,0,1,1.7-.37,5.28,5.28,0,0,1,2.72.85l-1.51,3a3.13,3.13,0,0,0-1.83-.68c-1.8,0-2.69,1.36-2.69,4.08v7.39H398Z"/><path d="M408.67,236.86a2,2,0,0,1,.63-1.49,2.07,2.07,0,0,1,1.51-.63,2,2,0,0,1,1.52.63,2,2,0,0,1,.63,1.51,2.08,2.08,0,0,1-.63,1.52,2,2,0,0,1-1.5.63,2.15,2.15,0,0,1-2.16-2.17Zm3.8,5.94v14.26h-3.3V242.8Z"/><path d="M429.63,250.71H419.41a4.34,4.34,0,0,0,1.14,2.79,3.48,3.48,0,0,0,2.6,1,3.37,3.37,0,0,0,2-.59,8.22,8.22,0,0,0,1.8-2.16l2.79,1.55a11,11,0,0,1-1.37,1.88,7.34,7.34,0,0,1-1.53,1.29,6.21,6.21,0,0,1-1.78.74,8.39,8.39,0,0,1-2.06.23,6.71,6.71,0,0,1-5.13-2.05A7.66,7.66,0,0,1,416,250a7.89,7.89,0,0,1,1.87-5.48,7.14,7.14,0,0,1,10-.06,7.9,7.9,0,0,1,1.82,5.52Zm-3.38-2.7a3.15,3.15,0,0,0-3.32-2.63,3.48,3.48,0,0,0-1.13.18,3.33,3.33,0,0,0-1.7,1.35,3.89,3.89,0,0,0-.47,1.1Z"/><path d="M444.28,242.8l3.74,8.14,4-9.45,4.05,9.45,3.7-8.14h3.69L456,258.13l-4-9.18-4,9.18-7.45-15.33Z"/><path d="M465,249.83a7.1,7.1,0,0,1,2.21-5.26,7.8,7.8,0,0,1,10.81,0,7.64,7.64,0,0,1,0,10.74,7.56,7.56,0,0,1-5.47,2.15,7.25,7.25,0,0,1-5.37-2.19A7.38,7.38,0,0,1,465,249.83Zm3.37.06a4.82,4.82,0,0,0,1.14,3.38,4.44,4.44,0,0,0,6.18,0,5.36,5.36,0,0,0,0-6.66,4.41,4.41,0,0,0-6.15,0A4.61,4.61,0,0,0,468.41,249.89Z"/><path d="M483.75,242.8H487v1.27a6.33,6.33,0,0,1,1.61-1.3,3.64,3.64,0,0,1,1.7-.37,5.31,5.31,0,0,1,2.73.85l-1.51,3a3.17,3.17,0,0,0-1.83-.68q-2.7,0-2.7,4.08v7.39h-3.29Z"/><path d="M498.26,232.32v15.09l4.65-4.61h4.42l-6.2,6,6.65,8.27h-4.27l-4.72-6-.53.53v5.49H495V232.32Z"/><path d="M518.2,245.23l-2.73,1.45q-.65-1.32-1.59-1.32a1.12,1.12,0,0,0-.78.3,1,1,0,0,0-.32.77c0,.55.63,1.09,1.9,1.63a11.12,11.12,0,0,1,3.53,2.08,3.52,3.52,0,0,1,.91,2.56,4.51,4.51,0,0,1-1.52,3.46,5.47,5.47,0,0,1-8.66-2.19l2.81-1.3a5.77,5.77,0,0,0,.9,1.3,2,2,0,0,0,1.43.56c1.12,0,1.67-.51,1.67-1.52,0-.59-.43-1.14-1.29-1.64l-1-.49-1-.48a6.14,6.14,0,0,1-2-1.41,3.44,3.44,0,0,1-.75-2.3,4.05,4.05,0,0,1,1.27-3.07,4.49,4.49,0,0,1,3.17-1.22A4.32,4.32,0,0,1,518.2,245.23Z"/><path d="M541.86,242.8h3.31v14.26h-3.31v-1.49a6.35,6.35,0,0,1-9.28-.23,8,8,0,0,1-1.91-5.45,7.71,7.71,0,0,1,1.91-5.35,6.18,6.18,0,0,1,4.81-2.14,6.06,6.06,0,0,1,4.47,2ZM534,249.89a5,5,0,0,0,1.1,3.34,3.59,3.59,0,0,0,2.84,1.3,3.77,3.77,0,0,0,3-1.26,5.41,5.41,0,0,0,0-6.62,3.71,3.71,0,0,0-2.93-1.27,3.63,3.63,0,0,0-2.84,1.28A4.78,4.78,0,0,0,534,249.89Z"/><path d="M549.33,242.8h3.31v1.32a5.37,5.37,0,0,1,3.89-1.72,4.93,4.93,0,0,1,3.89,1.57,6.43,6.43,0,0,1,1.2,4.35v8.74h-3.31v-8a5.24,5.24,0,0,0-.59-2.92,2.35,2.35,0,0,0-2.08-.82,2.55,2.55,0,0,0-2.33,1.08,7.49,7.49,0,0,0-.67,3.74v6.88h-3.31Z"/><path d="M576.29,232.32h3.32v24.74h-3.32v-1.49a6.11,6.11,0,0,1-4.4,1.9,6.29,6.29,0,0,1-4.87-2.13,8,8,0,0,1-1.92-5.45,7.71,7.71,0,0,1,1.92-5.34,6.14,6.14,0,0,1,4.79-2.15,6.05,6.05,0,0,1,4.48,2Zm-7.82,17.57a5,5,0,0,0,1.1,3.34,3.59,3.59,0,0,0,2.84,1.3,3.78,3.78,0,0,0,3-1.26,5.41,5.41,0,0,0,0-6.62,3.72,3.72,0,0,0-2.93-1.27,3.63,3.63,0,0,0-2.84,1.28A4.78,4.78,0,0,0,568.47,249.89Z"/><path d="M604.13,243.41v4.38a8,8,0,0,0-2-1.89,4,4,0,0,0-2.07-.52,4.06,4.06,0,0,0-3.09,1.3,4.58,4.58,0,0,0-1.23,3.27,4.64,4.64,0,0,0,1.19,3.29,4,4,0,0,0,3.06,1.29,4.18,4.18,0,0,0,2.09-.51,8.18,8.18,0,0,0,2.07-1.94v4.35a8.6,8.6,0,0,1-4,1,7.68,7.68,0,0,1-5.53-2.13,7.55,7.55,0,0,1,0-10.74,7.6,7.6,0,0,1,5.53-2.2A8.33,8.33,0,0,1,604.13,243.41Z"/><path d="M610.62,232.32v24.74h-3.3V232.32Z"/><path d="M614.29,236.86a2,2,0,0,1,.63-1.49,2.15,2.15,0,0,1,3,0,2,2,0,0,1,.62,1.51,2.14,2.14,0,0,1-3.66,1.52A2.09,2.09,0,0,1,614.29,236.86Zm3.8,5.94v14.26h-3.3V242.8Z"/><path d="M635.25,250.71H625a4.34,4.34,0,0,0,1.14,2.79,3.48,3.48,0,0,0,2.6,1,3.37,3.37,0,0,0,2-.59,8.22,8.22,0,0,0,1.8-2.16l2.79,1.55a11,11,0,0,1-1.37,1.88,7.34,7.34,0,0,1-1.53,1.29,6.21,6.21,0,0,1-1.78.74,8.39,8.39,0,0,1-2.06.23,6.71,6.71,0,0,1-5.13-2.05,7.66,7.66,0,0,1-1.93-5.47,7.89,7.89,0,0,1,1.87-5.48,7.14,7.14,0,0,1,10-.06,7.9,7.9,0,0,1,1.82,5.52Zm-3.38-2.7a3.15,3.15,0,0,0-3.32-2.63,3.48,3.48,0,0,0-1.13.18,3.33,3.33,0,0,0-1.7,1.35,3.89,3.89,0,0,0-.47,1.1Z"/><path d="M638.86,242.8h3.31v1.32a5.38,5.38,0,0,1,3.9-1.72A4.91,4.91,0,0,1,650,244a6.43,6.43,0,0,1,1.2,4.35v8.74h-3.31v-8a5.24,5.24,0,0,0-.59-2.92,2.35,2.35,0,0,0-2.08-.82,2.55,2.55,0,0,0-2.33,1.08,7.49,7.49,0,0,0-.67,3.74v6.88h-3.31Z"/><path d="M658.71,245.87v11.19h-3.3V245.87H654V242.8h1.41v-5.23h3.3v5.23h2.56v3.07Z"/><path d="M674.56,242.8l3.73,8.14,4-9.45,4.06,9.45,3.69-8.14h3.69l-7.47,15.33-4-9.18-4,9.18-7.46-15.33Z"/><path d="M695.31,249.83a7.07,7.07,0,0,1,2.22-5.26,7.38,7.38,0,0,1,5.39-2.17,7.49,7.49,0,0,1,5.42,2.18,7.3,7.3,0,0,1,2.19,5.37,7.2,7.2,0,0,1-2.21,5.37,7.52,7.52,0,0,1-5.46,2.15,7.28,7.28,0,0,1-5.38-2.19A7.42,7.42,0,0,1,695.31,249.83Zm3.37.06a4.78,4.78,0,0,0,1.15,3.38,4.44,4.44,0,0,0,6.18,0,5.4,5.4,0,0,0,0-6.66,4.42,4.42,0,0,0-6.16,0A4.61,4.61,0,0,0,698.68,249.89Z"/><path d="M714,242.8h3.3v1.27a6.16,6.16,0,0,1,1.61-1.3,3.61,3.61,0,0,1,1.7-.37,5.28,5.28,0,0,1,2.72.85l-1.51,3a3.13,3.13,0,0,0-1.83-.68c-1.8,0-2.69,1.36-2.69,4.08v7.39H714Z"/><path d="M728.54,232.32v15.09l4.64-4.61h4.42l-6.19,6,6.65,8.27h-4.28l-4.72-6-.52.53v5.49h-3.3V232.32Z"/><path d="M748.47,245.23l-2.72,1.45c-.43-.88-1-1.32-1.6-1.32a1.08,1.08,0,0,0-.77.3,1,1,0,0,0-.33.77c0,.55.64,1.09,1.91,1.63a11.24,11.24,0,0,1,3.53,2.08,3.56,3.56,0,0,1,.91,2.56,4.49,4.49,0,0,1-1.53,3.46,5.47,5.47,0,0,1-8.66-2.19l2.82-1.3a6.21,6.21,0,0,0,.89,1.3,2.05,2.05,0,0,0,1.44.56c1.11,0,1.67-.51,1.67-1.52,0-.59-.43-1.14-1.29-1.64l-1-.49-1-.48a6.14,6.14,0,0,1-2-1.41,3.44,3.44,0,0,1-.75-2.3,4.06,4.06,0,0,1,1.28-3.07,4.47,4.47,0,0,1,3.16-1.22A4.31,4.31,0,0,1,748.47,245.23Z"/></g></g></svg>